<?xml version="1.0" standalone="no"?>
<!DOCTYPE svg PUBLIC "-//W3C//DTD SVG 1.1//EN" "http://www.w3.org/Graphics/SVG/1.1/DTD/svg11.dtd" >
<!--
2013-9-30: Created.
-->
<svg>
<metadata>
Created by iconfont
</metadata>
<defs>

<font id="iconfont" horiz-adv-x="1024" >
  <font-face
    font-family="iconfont"
    font-weight="500"
    font-stretch="normal"
    units-per-em="1024"
    ascent="896"
    descent="-128"
  />
    <missing-glyph />
    
    <glyph glyph-name="account" unicode="&#59044;" d="M512 384m-512 0a512 512 0 1 1 1024 0 512 512 0 1 1-1024 0ZM512 896c282.760533 0 512-229.239467 512-512 0-282.760533-229.239467-512-512-512V896zM464.213333 349.866667h95.573334a191.146667 191.146667 0 0 0 191.146666-191.146667H273.066667a191.146667 191.146667 0 0 0 191.146666 191.146667zM559.786667 349.866667a191.146667 191.146667 0 0 0 191.146666-191.146667h-238.933333V349.866667h47.786667zM512 520.533333m-136.533333 0a136.533333 136.533333 0 1 1 273.066666 0 136.533333 136.533333 0 1 1-273.066666 0ZM512 657.066667a136.533333 136.533333 0 1 0 0-273.066667V657.066667z"  horiz-adv-x="1024" />

    
    <glyph glyph-name="addresses" unicode="&#59043;" d="M840.031897 760.095722c-181.183943 181.087943-474.815852 181.087943-655.999795 0a463.999855 463.999855 0 0 1-54.655982-590.335815l384.511879-297.599907 380.991881 297.599907a463.999855 463.999855 0 0 1-54.847983 590.335815zM839.935898 760.095722A463.199855 463.199855 0 0 1 511.52 895.99968c0-128.95996 0.896-1023.99968 0.896-1023.99968l382.23988 297.791907a463.615855 463.615855 0 0 1-54.719982 590.303815zM278.272073 511.5198v-294.399908h467.199854v294.399908l-233.599927 196.575939zM511.616 217.183892H745.599927v294.399908l-233.983927 196.511939zM808.287907 401.087835L511.808 643.839759l-295.263908-241.567925-62.87998 77.055976 358.175888 293.023909 359.359888-294.239908zM808.223907 401.087835L511.488 643.839759V772.351719l359.839888-294.239908zM462.048016 371.647844h99.519969v-154.463952h-99.519969zM511.136 371.647844h50.367985v-154.463952h-50.367985z"  horiz-adv-x="1024" />

    
    <glyph glyph-name="Search" unicode="&#59045;" d="M963.764706-128a59.873882 59.873882 0 0 0-42.586353 17.648941l-238.832941 238.832941a392.734118 392.734118 0 1 0 85.172706 85.172706l238.772706-238.772706A60.235294 60.235294 0 0 0 963.764706-128zM451.764706 715.294118a271.058824 271.058824 0 1 1 0-542.117647 271.058824 271.058824 0 0 1 0 542.117647z"  horiz-adv-x="1024" />

    
    <glyph glyph-name="Logoff" unicode="&#59046;" d="M1061.973333 57.002667a85.333333 85.333333 0 0 0-23.637333 118.272L1120.597333 298.666667H682.666667a85.333333 85.333333 0 1 0 0 170.666666h437.930666l-82.261333 123.306667a85.418667 85.418667 0 0 0 141.994667 94.72l170.666666-256c1.621333-2.986667 3.072-5.973333 4.352-9.216a64.682667 64.682667 0 0 0 4.010667-8.533333 84.906667 84.906667 0 0 0 0-59.136 77.738667 77.738667 0 0 0-4.010667-8.533334 90.794667 90.794667 0 0 0-4.352-9.216l-170.666666-256a85.333333 85.333333 0 0 0-118.357334-23.722666V57.173333zM256-128a256 256 0 0 0-256 256V640a256 256 0 0 0 256 256h426.666667a256 256 0 0 0 256-256 85.333333 85.333333 0 1 0-170.666667 0 85.333333 85.333333 0 0 1-85.333333 85.333333H256a85.333333 85.333333 0 0 1-85.333333-85.333333v-512a85.333333 85.333333 0 0 1 85.333333-85.333333h426.666667a85.333333 85.333333 0 0 1 85.333333 85.333333 85.333333 85.333333 0 0 0 170.666667 0 256 256 0 0 0-256-256H256z"  horiz-adv-x="1365" />

    
    <glyph glyph-name="clinic" unicode="&#59047;" d="M0 594.887928m33.456897 0l606.870934 0q33.456897 0 33.456897-33.456896l0-635.68104q0-33.456897-33.456897-33.456897l-606.870934 0q-33.456897 0-33.456897 33.456897l0 635.68104q0 33.456897 33.456897 33.456896ZM67.39706 360.689651m33.456897 0l202.600097 0q33.456897 0 33.456897-33.456897l0 0q0-33.456897-33.456897-33.456897l-202.600097 0q-33.456897 0-33.456897 33.456897l0 0q0 33.456897 33.456897 33.456897ZM67.39706 193.405166m33.456897 0l202.600097 0q33.456897 0 33.456897-33.456896l0 0q0-33.456897-33.456897-33.456897l-202.600097 0q-33.456897 0-33.456897 33.456897l0 0q0 33.456897 33.456897 33.456896ZM404.270837 594.887928m33.456897 0l606.870934 0q33.456897 0 33.456897-33.456896l0-635.68104q0-33.456897-33.456897-33.456897l-606.870934 0q-33.456897 0-33.456897 33.456897l0 635.68104q0 33.456897 33.456897 33.456896ZM741.181788 360.689651m33.456897 0l202.600097 0q33.456897 0 33.456897-33.456897l0 0q0-33.456897-33.456897-33.456897l-202.600097 0q-33.456897 0-33.456897 33.456897l0 0q0 33.456897 33.456897 33.456897ZM741.181788 193.405166m33.456897 0l202.600097 0q33.456897 0 33.456897-33.456896l0 0q0-33.456897-33.456897-33.456897l-202.600097 0q-33.456897 0-33.456897 33.456897l0 0q0 33.456897 33.456897 33.456896ZM168.436888 896m33.456897 0l674.267994 0q33.456897 0 33.456897-33.456897l0-936.793111q0-33.456897-33.456897-33.456897l-674.267994 0q-33.456897 0-33.456897 33.456897l0 936.793111q0 33.456897 33.456897 33.456897ZM539.027782 896h337.133997a33.456897 33.456897 0 0 0 33.456897-33.456897v-936.793111a33.456897 33.456897 0 0 0-33.456897-33.456897H539.027782V896zM742.334192 601.765179v-167.284484h-408.917628v167.284484zM742.334192 601.765179v-167.284484h-168.436888v167.284484zM446.091958 726.150487h168.436888v-408.917628H446.091958zM539.027782 726.150487h101.077003v-408.917628H539.027782zM471.667897 93.034476h134.756945V-107.706905h-134.756945zM539.027782 93.034476h67.39706V-107.706905H539.027782z"  horiz-adv-x="1099" />

    
    <glyph glyph-name="communication" unicode="&#59048;" d="M1024 496.256L566.4 116.128a84.928 84.928 0 0 0-108.544 0L0 496.256 457.6 876.384a84.928 84.928 0 0 0 108.544 0L1024 496.256zM567.424 876.48A84.576 84.576 0 0 1 513.312 896v-796.8c19.776 0 38.912 6.88 54.112 19.52l456.544 378.88L567.424 876.48zM932.256 398.464v288a40.032 40.032 0 0 1-40.032 40.064H131.808a40.032 40.032 0 0 1-40.032-40.192v-288l368.992-307.68a80 80 0 0 1 102.4 0l369.088 307.808zM892.32 726.4H513.312v-654.176a79.456 79.456 0 0 1 51.2 18.56l368 307.68v288A39.968 39.968 0 0 1 892.32 726.4zM1024 494.944l-457.6-378.88a85.152 85.152 0 0 0-108.544 0L0 494.944v-538.176A84.864 84.864 0 0 1 84.992-128h854.016A84.864 84.864 0 0 1 1024-43.232V494.944zM567.424 116.064a84.608 84.608 0 0 0-54.112-19.52v-224.512h425.92A84.768 84.768 0 0 1 1024-43.2V494.944l-456.576-378.88zM566.272 116.064a85.184 85.184 0 0 0-108.544 0l-48 39.84-382.4-261.344a84.8 84.8 0 0 1 57.6-22.56h854.176a84.8 84.8 0 0 1 57.6 22.56l-382.4 261.344-48.032-39.84zM996.8-105.44l-381.344 261.344-48-39.84a84.608 84.608 0 0 0-54.112-19.52v-224.512h425.92c21.344 0 41.92 8 57.536 22.528zM576.544 536.096H293.28a29.92 29.92 0 0 0 0 59.84h283.264a29.92 29.92 0 0 0 0-59.84zM730.432 416.096H293.568a29.92 29.92 0 0 0 0 59.84h436.864a29.92 29.92 0 0 0 0-59.84zM607.168 565.92a29.92 29.92 0 0 1-29.92 29.92h-64.832v-59.84h64.832a29.92 29.92 0 0 1 29.92 29.92zM730.848 476.16h-218.432v-59.84h218.432a29.92 29.92 0 0 1 0 59.84z"  horiz-adv-x="1024" />

    
    <glyph glyph-name="payments" unicode="&#59049;" d="M1170.124384 825.368314v-538.068511a71.825362 71.825362 0 0 0-73.471055-70.61852H204.687654a71.825362 71.825362 0 0 0-73.471055 70.61852V825.368314A72.044788 72.044788 0 0 0 204.687654 895.986834h891.965675a72.044788 72.044788 0 0 0 73.471055-70.61852zM131.033744 767.549629H1170.270668v-114.686526H131.033744zM1170.087813 405.935992v-136.6291a70.362524 70.362524 0 0 0-70.61852-70.618521h-85.429759l24.356258 338.939642 131.692021-131.692021zM965.692727-92.928451H73.471055A72.081359 72.081359 0 0 0 0-22.30993V515.868293a72.081359 72.081359 0 0 0 73.471055 70.618521h892.331385a72.081359 72.081359 0 0 0 73.471055-70.618521v-538.141652a72.081359 72.081359 0 0 0-73.580768-70.655092zM456.149564 586.486814A1305.583214 1305.583214 0 0 1 0.694848-29.258412 68.789973 68.789973 0 0 0 0-20.444811V517.623699a70.472237 70.472237 0 0 0 54.856438 68.863115h401.293126zM582.904506-92.928451a1305.583214 1305.583214 0 0 1 455.454715 615.745226c0.402281-2.925677 0.658277-5.851353 0.694848-8.813601v-538.06851a70.472237 70.472237 0 0 0-54.856437-68.863115H582.904506zM708.562318 411.275352m-86.014894 0a86.014894 86.014894 0 1 1 172.029789 0 86.014894 86.014894 0 1 1-172.029789 0ZM837.292092 411.275352m-86.014894 0a86.014894 86.014894 0 1 1 172.029788 0 86.014894 86.014894 0 1 1-172.029788 0ZM295.529915 190.606189H128.473777a35.290975 35.290975 0 1 0 0 70.618521H295.493344a35.290975 35.290975 0 1 0 0-70.618521h0.036571zM444.739425 371.778717H128.473777a35.290975 35.290975 0 1 0 0 70.618521h316.229077a35.327546 35.327546 0 0 0 0-70.618521h0.036571zM231.823305-3.146748H128.437206a35.327546 35.327546 0 0 0 0 70.618521h103.386099a35.327546 35.327546 0 0 0 0-70.618521zM457.648973-3.146748H354.189732a35.327546 35.327546 0 0 0 0 70.618521h103.459241a35.327546 35.327546 0 0 0 0-70.618521zM679.451836-3.146748H575.992594a35.327546 35.327546 0 0 0 0 70.618521h103.459242a35.327546 35.327546 0 0 0 0-70.618521zM901.254698-3.146748h-103.459241a35.327546 35.327546 0 0 0 0 70.618521h103.459241a35.327546 35.327546 0 0 0 0-70.618521z"  horiz-adv-x="1170" />

    
    <glyph glyph-name="faq-1" unicode="&#59029;" d="M752.880941-126.132706c-15.962353 0-31.322353 6.384941-42.586353 17.648941l-163.056941 163.056941H331.233882a60.235294 60.235294 0 0 0-60.235294 60.235295v180.705882h-180.705882a60.235294 60.235294 0 0 0-60.235294 60.235294v421.647059a60.235294 60.235294 0 0 0 60.235294 60.235294h602.352941a60.235294 60.235294 0 0 0 60.235294-60.235294v-240.941177h180.705883a60.235294 60.235294 0 0 0 60.235294-60.235294v-361.411764a60.235294 60.235294 0 0 0-60.235294-60.235295h-120.470589v-120.470588a60.235294 60.235294 0 0 0-60.235294-60.235294z m-361.411765 542.117647v-240.941176h180.705883a60.235294 60.235294 0 0 0 42.586353-17.648941l77.884235-77.884236v35.297883a60.235294 60.235294 0 0 0 60.235294 60.235294h120.470588v240.941176h-481.882353z m-240.941176 301.176471v-301.176471h120.470588v60.235294a60.235294 60.235294 0 0 0 60.235294 60.235294h301.176471v180.705883h-481.882353z"  horiz-adv-x="1024" />

    
    <glyph glyph-name="faq" unicode="&#59030;" d="M752.941176-126.132706c-15.962353 0-31.322353 6.384941-42.586352 17.648941l-163.056942 163.056941H331.294118a60.235294 60.235294 0 0 0-60.235294 60.235295v180.705882H90.352941a60.235294 60.235294 0 0 0-60.235294 60.235294v421.647059a60.235294 60.235294 0 0 0 60.235294 60.235294h602.352941a60.235294 60.235294 0 0 0 60.235294-60.235294v-240.941177h180.705883a60.235294 60.235294 0 0 0 60.235294-60.235294v-361.411764a60.235294 60.235294 0 0 0-60.235294-60.235295h-120.470588v-120.470588a60.235294 60.235294 0 0 0-60.235295-60.235294z m-361.411764 542.117647v-240.941176h180.705882a60.235294 60.235294 0 0 0 42.586353-17.648941L692.705882 79.510588v35.297883a60.235294 60.235294 0 0 0 60.235294 60.235294h120.470589v240.941176H391.529412z m-240.941177 301.176471v-301.176471h120.470589v60.235294a60.235294 60.235294 0 0 0 60.235294 60.235294h301.17647v180.705883H150.588235z"  horiz-adv-x="1024" />

    
    <glyph glyph-name="home" unicode="&#59031;" d="M394.496 418.304H104.512A104.576 104.576 0 0 0 0 522.816v268.8C0.128 849.216 46.848 895.936 104.512 896h289.984A104.576 104.576 0 0 0 499.2 791.488v-268.8a104.576 104.576 0 0 0-104.704-104.384zM104.512 806.4a14.912 14.912 0 0 1-14.912-14.912v-268.8a14.912 14.912 0 0 1 14.912-14.912h289.984a14.912 14.912 0 0 1 15.104 15.04v268.8a14.912 14.912 0 0 1-15.104 14.784H104.512zM919.552 418.304H629.568a104.576 104.576 0 0 0-104.512 104.512v268.8C525.184 849.216 571.904 895.936 629.568 896h289.984a104.576 104.576 0 0 0 104.704-104.512v-268.8a104.576 104.576 0 0 0-104.704-104.384zM629.568 806.4a14.912 14.912 0 0 1-14.912-14.912v-268.8a14.912 14.912 0 0 1 14.912-14.912h289.984a14.912 14.912 0 0 1 15.104 15.04v268.8a14.912 14.912 0 0 1-15.104 14.784H629.568zM394.496-93.696H104.512A104.576 104.576 0 0 0 0 10.816v268.8c0.128 57.6 46.848 104.32 104.512 104.384h289.984A104.576 104.576 0 0 0 499.2 279.488v-268.8a104.576 104.576 0 0 0-104.704-104.384zM104.512 294.4a14.912 14.912 0 0 1-14.912-14.912v-268.8a14.912 14.912 0 0 1 14.912-14.912h289.984a14.912 14.912 0 0 1 15.104 15.04v268.8a14.912 14.912 0 0 1-15.104 14.784H104.512zM919.552-93.696H629.568a104.576 104.576 0 0 0-104.512 104.512v268.8c0.128 57.6 46.848 104.32 104.512 104.384h289.984a104.576 104.576 0 0 0 104.704-104.512v-268.8a104.576 104.576 0 0 0-104.704-104.384zM629.568 294.4a14.912 14.912 0 0 1-14.912-14.912v-268.8a14.912 14.912 0 0 1 14.912-14.912h289.984a14.912 14.912 0 0 1 15.104 15.04v268.8a14.912 14.912 0 0 1-15.104 14.784H629.568z"  horiz-adv-x="1088" />

    
    <glyph glyph-name="Information-1" unicode="&#59032;" d="M958.151648-126.019713h-894.323144a63.880225 63.880225 0 0 0-63.880224 63.880225 420.523518 420.523518 0 0 0 79.466999 249.132875 467.028322 467.028322 0 0 0 212.146226 158.742358 316.143231 316.143231 0 0 0-99.972551 230.927012 319.401123 319.401123 0 1 0 638.802245 0 316.015471 316.015471 0 0 0-99.908671-230.863131 467.092202 467.092202 0 0 0 212.082346-158.806239 420.523518 420.523518 0 0 0 79.466999-249.132875 63.880225 63.880225 0 0 0-63.880225-63.880225z m-447.161572 383.281347c-192.343356 0-343.675608-102.719401-376.573923-255.520898h753.467248c-31.940112 155.165066-179.950593 255.520898-376.893325 255.520898z m0 511.041797a191.640674 191.640674 0 1 1 0-383.281347 191.640674 191.640674 0 0 1 0 383.281347z"  horiz-adv-x="1024" />

    
    <glyph glyph-name="Orders" unicode="&#59033;" d="M703.624001-30.068332a95.948727 95.948727 0 1 0 191.897455 0 95.948727 95.948727 0 0 0-191.897455 0z m-511.726546 0a95.948727 95.948727 0 1 0 191.897455 0 95.948727 95.948727 0 0 0-191.897455 0z m113.923122 159.914545a127.931637 127.931637 0 0 0-124.093687 96.972181L65.884793 690.05885a9.914702 9.914702 0 0 0 0 3.710017 15.991455 15.991455 0 0 1 0 2.878462 35.756892 35.756892 0 0 1-0.831556 3.582086A17.974395 17.974395 0 0 0 63.965818 705.538578v37.483969l-45.223833 45.223834A63.965818 63.965818 0 0 0 109.125686 878.694048l63.965818-63.965818A63.390126 63.390126 0 0 0 191.897455 769.504396h767.589819c19.701472 0 38.251559-9.083146 50.405065-24.562874 12.153505-15.479728 16.503181-35.756892 11.641779-54.818706l-115.778131-463.240456a127.931637 127.931637 0 0 0-124.221619-97.036147H305.820577z m406.246912 127.931637h69.466879l31.982909 127.931636h-85.458333l-15.991455-127.931636z m-207.888909 0h78.933819l15.991455 127.931636H488.251091l15.927489-127.931636z m-198.294037 0h69.338947l-15.927489 127.931636H273.773702l32.110841-127.931636z m438.293787 255.863273h101.449787l31.98291 127.931637h-117.505209l-15.927488-127.931637z m-271.918694 0h142.835672l15.991455 127.931637H456.268182l15.991454-127.931637z m-230.276946 0h101.321857l-15.991455 127.931637H209.87185l32.11084-127.931637z"  horiz-adv-x="1024" />

    
    <glyph glyph-name="Pets" unicode="&#59034;" d="M498.47808-108.303059c-55.657412 0-89.389176 61.138824-125.048471 125.952l-9.33647 16.384a348.702118 348.702118 0 0 0 115.712 475.376941 320.933647 320.933647 0 0 0 248.048941 30.960942 363.339294 363.339294 0 0 0 217.931294-171.489883 373.458824 373.458824 0 0 0 47.887059-159.804235 60.235294 60.235294 0 0 0-72.282353-62.765177 234.556235 234.556235 0 0 1-42.586353 3.312942 341.473882 341.473882 0 0 1-314.428235-214.558118 73.185882 73.185882 0 0 0-64.150588-43.309177l-1.746824-0.060235z m141.854118 540.250353c-35.177412 0-69.752471-9.216-100.23153-26.74447a228.050824 228.050824 0 0 1-71.077647-311.657412l9.758118-17.528471c3.433412-6.384941 8.372706-15.179294 13.43247-24.094117a477.846588 477.846588 0 0 0 181.488942 168.05647 452.547765 452.547765 0 0 0 185.584941 50.176 254.494118 254.494118 0 0 1-18.070588 39.574588 242.206118 242.206118 0 0 1-144.564706 114.447059 216.184471 216.184471 0 0 1-56.32 7.770353zM270.969374 293.165176a120.470588 120.470588 0 1 0-240.941176 0 120.470588 120.470588 0 0 0 240.941176 0M331.204668 570.669176a120.470588 120.470588 0 1 0-240.941176 0 120.470588 120.470588 0 0 0 240.941176 0M604.612668 737.219765a120.470588 120.470588 0 1 0-240.941176 0 120.470588 120.470588 0 0 0 240.941176 0M873.322315 737.219765a120.470588 120.470588 0 1 0-240.941176 0 120.470588 120.470588 0 0 0 240.941176 0"  horiz-adv-x="1024" />

    
    <glyph glyph-name="home-1" unicode="&#59035;" d="M394.559753 418.303659H104.575935A104.575935 104.575935 0 0 0 0.064 522.815593v268.799832C0.192 849.215389 46.911971 895.93536 104.575935 895.99936h289.983818a104.575935 104.575935 0 0 0 104.703935-104.511935v-268.799832a104.575935 104.575935 0 0 0-104.703935-104.383934zM104.575935 806.399416a14.911991 14.911991 0 0 1-14.911991-14.911991v-268.799832a14.911991 14.911991 0 0 1 14.911991-14.91199h289.983818a14.911991 14.911991 0 0 1 15.103991 15.03999v268.799832a14.911991 14.911991 0 0 1-15.103991 14.783991H104.575935zM919.615425 418.303659H629.631607a104.575935 104.575935 0 0 0-104.511935 104.511934v268.799832C525.247672 849.215389 571.967643 895.93536 629.631607 895.99936h289.983818a104.575935 104.575935 0 0 0 104.703935-104.511935v-268.799832a104.575935 104.575935 0 0 0-104.703935-104.383934zM629.631607 806.399416a14.911991 14.911991 0 0 1-14.911991-14.911991v-268.799832a14.911991 14.911991 0 0 1 14.911991-14.91199h289.983818a14.911991 14.911991 0 0 1 15.103991 15.03999v268.799832a14.911991 14.911991 0 0 1-15.103991 14.783991H629.631607zM394.559753-93.696021H104.575935a104.575935 104.575935 0 0 0-104.511935 104.511934v268.799832c0.128 57.599964 46.847971 104.319935 104.511935 104.383935h289.983818a104.575935 104.575935 0 0 0 104.703935-104.511935v-268.799832a104.575935 104.575935 0 0 0-104.703935-104.383934zM104.575935 294.399736a14.911991 14.911991 0 0 1-14.911991-14.911991v-268.799832a14.911991 14.911991 0 0 1 14.911991-14.91199h289.983818a14.911991 14.911991 0 0 1 15.103991 15.03999v268.799832a14.911991 14.911991 0 0 1-15.103991 14.783991H104.575935zM919.615425-93.696021H629.631607a104.575935 104.575935 0 0 0-104.511935 104.511934v268.799832c0.128 57.599964 46.847971 104.319935 104.511935 104.383935h289.983818a104.575935 104.575935 0 0 0 104.703935-104.511935v-268.799832a104.575935 104.575935 0 0 0-104.703935-104.383934zM629.631607 294.399736a14.911991 14.911991 0 0 1-14.911991-14.911991v-268.799832a14.911991 14.911991 0 0 1 14.911991-14.91199h289.983818a14.911991 14.911991 0 0 1 15.103991 15.03999v268.799832a14.911991 14.911991 0 0 1-15.103991 14.783991H629.631607z"  horiz-adv-x="1024" />

    
    <glyph glyph-name="Information" unicode="&#59036;" d="M958.214889-126.019713H63.891745a63.880225 63.880225 0 0 0-63.880225 63.880225 420.523518 420.523518 0 0 0 79.466999 249.132875 467.028322 467.028322 0 0 0 212.146226 158.742358A316.143231 316.143231 0 0 0 191.652194 576.662757a319.401123 319.401123 0 1 0 638.802246 0 316.015471 316.015471 0 0 0-99.908672-230.863131 467.092202 467.092202 0 0 0 212.082346-158.806239 420.523518 420.523518 0 0 0 79.466999-249.132875 63.880225 63.880225 0 0 0-63.880224-63.880225z m-447.161572 383.281347c-192.343356 0-343.675608-102.719401-376.573924-255.520898H887.946642c-31.940112 155.165066-179.950593 255.520898-376.893325 255.520898z m0 511.041797a191.640674 191.640674 0 1 1 0-383.281347 191.640674 191.640674 0 0 1 0 383.281347z"  horiz-adv-x="1024" />

    
    <glyph glyph-name="Orders-1" unicode="&#59037;" d="M702.738796-30.206697a95.813164 95.813164 0 1 0 191.626329 0 95.813164 95.813164 0 0 0-191.626329 0z m-511.003543 0a95.813164 95.813164 0 1 0 191.626329 0 95.813164 95.813164 0 0 0-191.626329 0z m113.762164 159.688607a127.750886 127.750886 0 0 0-123.918359 96.835172L65.900631 688.903039a9.900694 9.900694 0 0 0 0 3.704776 15.968861 15.968861 0 0 1 0 2.874395 35.706373 35.706373 0 0 1-0.830381 3.577024 17.948999 17.948999 0 0 0-1.085883 5.301662v37.43101l-45.159938 45.159938A63.875443 63.875443 0 0 0 109.08043 877.27172l63.875443-63.875443a63.300564 63.300564 0 0 0 18.77938-45.159938h766.505315c19.673636 0 38.197515-9.070313 50.333849-24.52817 12.136334-15.457857 16.479864-35.706373 11.62533-54.741254l-115.614551-462.585958a127.750886 127.750886 0 0 0-124.04611-96.899047H305.497417z m405.672938 127.750886h69.368731l31.937721 127.750886h-85.337592l-15.96886-127.750886z m-207.59519 0h78.822297l15.968861 127.750886H487.67018l15.904985-127.750886z m-198.013873 0h69.240981l-15.904986 127.750886H273.49582l32.065472-127.750886z m437.674535 255.501772h101.306453l31.937721 127.750885h-117.339189l-15.904985-127.750885z m-271.534508 0h142.633864l15.968861 127.750885H455.732459l15.96886-127.750885z m-229.951594 0h101.178702l-15.968861 127.750885H209.684253l32.065472-127.750885z"  horiz-adv-x="1024" />

    
    <glyph glyph-name="Pets-1" unicode="&#59038;" d="M498.507294-108.303059c-55.657412 0-89.389176 61.138824-125.04847 125.952l-9.336471 16.384a348.702118 348.702118 0 0 0 115.712 475.376941 320.933647 320.933647 0 0 0 248.048941 30.960942 363.339294 363.339294 0 0 0 217.931294-171.489883 373.458824 373.458824 0 0 0 47.887059-159.804235 60.235294 60.235294 0 0 0-72.282353-62.765177 234.556235 234.556235 0 0 1-42.586353 3.312942 341.473882 341.473882 0 0 1-314.428235-214.558118 73.185882 73.185882 0 0 0-64.150588-43.309177l-1.746824-0.060235z m141.854118 540.250353c-35.177412 0-69.752471-9.216-100.23153-26.74447a228.050824 228.050824 0 0 1-71.077647-311.657412l9.758118-17.528471c3.433412-6.384941 8.372706-15.179294 13.432471-24.094117a477.846588 477.846588 0 0 0 181.488941 168.05647 452.547765 452.547765 0 0 0 185.584941 50.176 254.494118 254.494118 0 0 1-18.070588 39.574588 242.206118 242.206118 0 0 1-144.564706 114.447059 216.184471 216.184471 0 0 1-56.32 7.770353zM270.998588 293.165176a120.470588 120.470588 0 1 0-240.941176 0 120.470588 120.470588 0 0 0 240.941176 0M331.233882 570.669176a120.470588 120.470588 0 1 0-240.941176 0 120.470588 120.470588 0 0 0 240.941176 0M604.641882 737.219765a120.470588 120.470588 0 1 0-240.941176 0 120.470588 120.470588 0 0 0 240.941176 0M873.351529 737.219765a120.470588 120.470588 0 1 0-240.941176 0 120.470588 120.470588 0 0 0 240.941176 0"  horiz-adv-x="1024" />

    
    <glyph glyph-name="Subscriptions-1" unicode="&#59039;" d="M247.694222 99.555556h-41.528889a149.504 149.504 0 0 0-149.333333 149.333333v398.222222A149.504 149.504 0 0 0 206.165333 796.444444V846.222222a49.777778 49.777778 0 1 0 99.612445 0v-49.777778h298.609778V846.222222a49.777778 49.777778 0 1 0 99.555555 0v-49.777778a149.560889 149.560889 0 0 0 149.333333-149.333333v-292.807111c-18.432 22.755556-48.924444 49.720889-99.498666 78.051556V497.777778H156.387556v-248.888889c0-27.477333 22.300444-49.777778 49.777777-49.834667h74.922667c-22.755556-34.076444-35.612444-66.048-33.393778-99.498666z m-41.528889 597.333333a49.834667 49.834667 0 0 1-49.777777-49.834667v-49.720889h597.333333v49.777778a49.891556 49.891556 0 0 1-49.834667 49.834667L206.165333 696.888889zM363.576889 102.741333l-1.706667-2.787555a41.813333 41.813333 0 1 0-71.793778 42.951111l30.151112 49.720889a93.639111 93.639111 0 0 0 128.284444 32.085333l49.777778-29.923555a41.756444 41.756444 0 0 0-43.235556-71.509334l-12.288 7.395556a195.470222 195.470222 0 0 1 352.711111-55.352889 41.756444 41.756444 0 1 0 69.916445-45.511111 279.438222 279.438222 0 0 0-501.816889 72.931555z m424.220444 31.232l-49.834666 29.866667a41.699556 41.699556 0 0 0 42.951111 71.509333l12.288-7.338666a195.470222 195.470222 0 0 1-352.711111 55.409777 41.699556 41.699556 0 0 0-69.916445 45.511112 279.495111 279.495111 0 0 0 502.272-72.988445l1.649778 2.787556a41.699556 41.699556 0 1 0 71.566222-42.894223l-30.208-49.891555a93.525333 93.525333 0 0 0-128.284444-32.085333l0.227555 0.113777z"  horiz-adv-x="1024" />

    
    <glyph glyph-name="Services-1" unicode="&#59040;" d="M938.074453 369.550222l35.214223-72.248889c25.201778-51.086222 5.063111-112.981333-45.283556-139.434666l-71.281778-37.831111a5.12 5.12 0 0 1-2.616889-3.640889l-13.937777-79.246223a105.073778 105.073778 0 0 0-118.670223-86.300444l-79.644444 11.377778a5.12 5.12 0 0 1-4.323556-1.365334l-57.856-55.978666c-40.789333-39.822222-105.927111-39.822222-146.659555-0.056889l-57.969778 56.035555a5.12 5.12 0 0 1-4.266667 1.365334l-79.644444-11.377778a105.073778 105.073778 0 0 0-118.670222 86.016l-13.937778 79.416889a5.12 5.12 0 0 1-2.730667 3.640889l-71.111111 37.717333a105.130667 105.130667 0 0 0-45.340444 139.491556l35.384889 72.419555a5.12 5.12 0 0 1 0 4.551111L39.400676 446.577778a105.130667 105.130667 0 0 0 45.283555 139.491555l71.281778 37.831111a5.12 5.12 0 0 1 2.616889 3.640889l13.937778 79.246223A105.073778 105.073778 0 0 0 291.247787 793.031111l79.644444-11.377778a5.12 5.12 0 0 1 4.323556 1.365334l57.856 55.978666C473.86112 878.819556 538.998898 878.819556 579.731342 839.111111l58.026667-56.149333a5.12 5.12 0 0 1 4.266667-1.365334l79.644444 11.377778a105.130667 105.130667 0 0 0 118.670222-86.243555l13.937778-79.416889a5.12 5.12 0 0 1 2.730667-3.640889l71.111111-37.717333a105.130667 105.130667 0 0 0 45.340444-139.491556l-35.384889-72.419556a5.063111 5.063111 0 0 1 0-4.437333z m-56.888889-123.562666v0.056888a5.12 5.12 0 0 1 2.218667 6.883556l-35.384889 72.305778a104.846222 104.846222 0 0 0 0 92.615111l35.271111 72.931555a5.12 5.12 0 0 1-2.275555 6.826667l-71.111111 37.717333a104.846222 104.846222 0 0 0-54.442667 74.979556l-13.937778 79.36a5.12 5.12 0 0 1-5.802666 4.152889l-79.644445-11.377778a104.846222 104.846222 0 0 0-88.177778 28.615111L509.985564 767.146667a5.12 5.12 0 0 1-7.224888-0.056889L445.132231 711.111111c-23.324444-22.983111-55.978667-33.792-88.462222-29.184l-79.644445 11.377778a5.12 5.12 0 0 1-5.802666-4.152889L257.228231 609.848889a104.846222 104.846222 0 0 0-54.385778-74.979556l-71.224889-37.831111a5.12 5.12 0 0 1-2.218666-6.826666l35.384889-72.305778a104.846222 104.846222 0 0 0 0-92.728889l-35.384889-72.419556a5.12 5.12 0 0 1 2.275555-6.826666l71.224889-37.717334c28.842667-15.189333 48.981333-42.951111 54.499556-74.979555l13.937778-79.36a5.12 5.12 0 0 1 5.802666-4.152889l79.644445 11.377778a104.789333 104.789333 0 0 0 88.177777-28.615111l57.799112-56.035556a5.12 5.12 0 0 1 7.224888 0.113778l58.026667 55.921778c23.324444 22.755556 55.978667 33.28 88.177778 28.615111l79.644444-11.377778a5.12 5.12 0 0 1 5.802667 4.152889l13.937778 79.303111c5.518222 32.085333 25.6 59.847111 54.385778 74.979555l71.168 37.774223zM680.652231 546.304a36.977778 36.977778 0 0 1-51.655111 0l-296.903111-296.96c-10.069333-7.111111-15.701333-21.845333-12.686222-36.124444a36.977778 36.977778 0 0 1 65.991111-14.108445l295.424 295.139556a36.977778 36.977778 0 0 1 0.113778 51.768889l-0.227556 0.284444zM356.385564 570.993778a90.168889 90.168889 0 1 0 0-180.337778 90.168889 90.168889 0 0 0 0 180.337778z m20.309334-90.168889a20.309333 20.309333 0 1 1-40.618667 0 20.309333 20.309333 0 0 1 40.618667 0zM656.417564 352.938667a90.168889 90.168889 0 1 0 0-180.337778 90.168889 90.168889 0 0 0 0 180.337778z m20.309334-90.168889a20.309333 20.309333 0 1 1-40.618667 0 20.309333 20.309333 0 0 1 40.618667 0z"  horiz-adv-x="1024" />

    
    <glyph glyph-name="Services" unicode="&#59041;" d="M938.120249 369.550222l35.214222-72.248889c25.201778-51.086222 5.063111-112.981333-45.283555-139.434666l-71.281778-37.831111a5.12 5.12 0 0 1-2.616889-3.640889l-13.937778-79.246223a105.073778 105.073778 0 0 0-118.670222-86.300444l-79.644445 11.377778a5.12 5.12 0 0 1-4.323555-1.365334l-57.856-55.978666c-40.789333-39.822222-105.927111-39.822222-146.659556-0.056889l-57.969777 56.035555a5.12 5.12 0 0 1-4.266667 1.365334l-79.644445-11.377778a105.073778 105.073778 0 0 0-118.670222 86.016l-13.937778 79.416889a5.12 5.12 0 0 1-2.730666 3.640889l-71.111111 37.717333a105.130667 105.130667 0 0 0-45.340445 139.491556L74.774471 369.550222a5.12 5.12 0 0 1 0 4.551111L39.50336 446.577778a105.130667 105.130667 0 0 0 45.283556 139.491555l71.281777 37.831111a5.12 5.12 0 0 1 2.616889 3.640889l13.937778 79.246223A105.073778 105.073778 0 0 0 291.293582 793.031111l79.644445-11.377778a5.12 5.12 0 0 1 4.323555 1.365334l57.856 55.978666C473.906916 878.819556 538.987804 878.819556 579.777138 839.111111l58.026666-56.149333a5.12 5.12 0 0 1 4.266667-1.365334l79.644445 11.377778a105.130667 105.130667 0 0 0 118.670222-86.243555l13.937778-79.416889a5.12 5.12 0 0 1 2.730666-3.640889l71.111111-37.717333a105.130667 105.130667 0 0 0 45.340445-139.491556l-35.384889-72.419556a5.063111 5.063111 0 0 1 0-4.437333z m-56.888889-123.562666v0.056888a5.12 5.12 0 0 1 2.218667 6.883556l-35.384889 72.305778a104.846222 104.846222 0 0 0 0 92.615111l35.271111 72.931555a5.12 5.12 0 0 1-2.275556 6.826667l-71.111111 37.717333a104.846222 104.846222 0 0 0-54.442666 74.979556l-13.937778 79.36a5.12 5.12 0 0 1-5.802667 4.152889l-79.644444-11.377778a104.846222 104.846222 0 0 0-88.177778 28.615111l-57.912889 56.092445a5.12 5.12 0 0 1-7.224889-0.056889L445.121138 711.111111c-23.324444-22.983111-55.978667-33.792-88.462222-29.184l-79.644445 11.377778a5.12 5.12 0 0 1-5.802667-4.152889L257.274027 609.848889a104.846222 104.846222 0 0 0-54.385778-74.979556l-71.224889-37.831111a5.12 5.12 0 0 1-2.218667-6.826666l35.384889-72.305778a104.846222 104.846222 0 0 0 0-92.728889l-35.384889-72.419556a5.12 5.12 0 0 1 2.275556-6.826666l71.224889-37.717334c28.842667-15.189333 48.981333-42.951111 54.499555-74.979555l13.937778-79.36a5.12 5.12 0 0 1 5.802667-4.152889l79.644444 11.377778a104.789333 104.789333 0 0 0 88.177778-28.615111l57.799111-56.035556a5.12 5.12 0 0 1 7.224889 0.113778l58.026667 55.921778c23.324444 22.755556 55.978667 33.28 88.177777 28.615111l79.644445-11.377778a5.12 5.12 0 0 1 5.802667 4.152889l13.937777 79.303111c5.518222 32.085333 25.6 59.847111 54.385778 74.979555l71.168 37.774223zM680.754916 546.304a36.977778 36.977778 0 0 1-51.712 0l-296.903112-296.96c-10.069333-7.111111-15.701333-21.845333-12.686222-36.124444a36.977778 36.977778 0 0 1 65.991111-14.108445l295.424 295.139556a36.977778 36.977778 0 0 1 0.113778 51.768889l-0.227555 0.284444zM356.43136 570.993778a90.168889 90.168889 0 1 0 0-180.337778 90.168889 90.168889 0 0 0 0 180.337778z m20.309333-90.168889a20.309333 20.309333 0 1 1-40.618666 0 20.309333 20.309333 0 0 1 40.618666 0zM656.46336 352.938667a90.168889 90.168889 0 1 0 0-180.337778 90.168889 90.168889 0 0 0 0 180.337778z m20.309333-90.168889a20.309333 20.309333 0 1 1-40.618666 0 20.309333 20.309333 0 0 1 40.618666 0z"  horiz-adv-x="1024" />

    
    <glyph glyph-name="Subscriptions" unicode="&#59042;" d="M247.751111 99.555556h-41.528889A149.504 149.504 0 0 0 56.888889 248.888889v398.222222A149.504 149.504 0 0 0 206.222222 796.444444V846.222222a49.777778 49.777778 0 1 0 99.612445 0v-49.777778h298.609777V846.222222a49.777778 49.777778 0 1 0 99.555556 0v-49.777778A149.560889 149.560889 0 0 0 853.333333 647.111111v-292.807111c-18.432 22.755556-48.924444 49.720889-99.498666 78.051556V497.777778H156.444444v-248.888889c0-27.477333 22.300444-49.777778 49.777778-49.834667h74.922667c-22.755556-34.076444-35.612444-66.048-33.393778-99.498666z m-41.528889 597.333333a49.834667 49.834667 0 0 1-49.777778-49.834667v-49.720889h597.333334v49.777778a49.891556 49.891556 0 0 1-49.834667 49.834667L206.222222 696.888889zM363.633778 102.741333l-1.706667-2.787555a41.813333 41.813333 0 1 0-71.793778 42.951111l30.151111 49.720889a93.639111 93.639111 0 0 0 128.284445 32.085333l49.777778-29.923555A41.756444 41.756444 0 0 0 455.111111 123.278222l-12.288 7.395556a195.470222 195.470222 0 0 1 352.711111-55.352889 41.756444 41.756444 0 1 0 69.916445-45.511111 279.438222 279.438222 0 0 0-501.816889 72.931555z m424.220444 31.232l-49.834666 29.866667a41.699556 41.699556 0 0 0 42.951111 71.509333l12.288-7.338666a195.470222 195.470222 0 0 1-352.711111 55.409777 41.699556 41.699556 0 0 0-69.916445 45.511112 279.495111 279.495111 0 0 0 502.272-72.988445l1.649778 2.787556a41.699556 41.699556 0 1 0 71.566222-42.894223l-30.208-49.891555a93.525333 93.525333 0 0 0-128.284444-32.085333l0.227555 0.113777z"  horiz-adv-x="1024" />

    
    <glyph glyph-name="Myorders1" unicode="&#59027;" d="M1092.699317 613.536585l-119.02439-3.365853V704.731707h119.02439v-91.219512z m0-114.634146l-118.951219-10.634146v76.585366l118.951219 3.463414v-69.414634z m0-136.585366l-118.951219-15v95.512195l118.951219 10.634147v-91.146342zM790.601756 324.195122l-6.04878 101.780488 143.463414 12.853658v-97.170731l-137.439024-17.463415z m-13.97561 234.878049l151.390244 4.390244v-79.268293l-146.170731-13.073171-5.195122 87.95122z m-8.658536 145.609756h160.04878v-95.780488l-154.07317-4.487805-5.97561 100.292683z m-183.073171-406.292683v1.146341l-11.414634 107.560976 165.536585 14.804878 6.146342-103.341463-160.243903-20.170732zM557.96761 552.853659l172.926829 5.04878 5.390244-90.731707-167.609756-14.97561-10.731707 100.658537z m-16.170732 152h180.487805v-1.341464l6-100.414634-175.073171-5.121951-11.414634 106.878049z m-144.146341-430.073171l-21.95122 114.634146 152.195122 13.609756 11.487805-108.219512c0-0.731707 0.243902-1.414634 0.365854-2.121951l-142.073171-17.902439z m-52.024391 271.756097l166.536586 4.878049 10.975609-103.414634-155.926829-13.95122-21.585366 112.487805z m-30.292683 158.195122h180.487805l11.512195-108.170731-170.317073-4.878049-21.682927 113.04878zM1115.577366 750.04878H305.528585l-18.536585 73.512196a22.804878 22.804878 0 0 1-24.146341 17.07317H81.455415a22.487805 22.487805 0 0 1-22.439025-22.682926 22.536585 22.536585 0 0 1 22.439025-22.634147H246.992l18.390244-72.756097 89.951219-470.024391-43.585365-129.512195a22.634146 22.634146 0 0 1 14.268292-28.585366l0.195122-0.04878a22.95122 22.95122 0 0 1 28.926829 14.317073l40.487805 120 722.829269 91.195122a22.756098 22.756098 0 0 1 19.975609 22.439024V727.414634A22.731707 22.731707 0 0 1 1115.528585 750.04878zM1013.821268 144.097561v-46.121951a11.463415 11.463415 0 0 0-11.390244-11.536586H319.333463a11.463415 11.463415 0 0 0-11.365853 11.536586v46.097561a11.439024 11.439024 0 0 0 11.365853 11.560975h683.097561c6.341463-0.02439 11.463415-5.195122 11.390244-11.536585zM10.552976 743.756098H259.699317V896H10.552976zM391.065171-51.926829h574.414634V211.04878H391.065171zM482.113951 176.439024h-45.121951a11.731707 11.731707 0 0 1-11.317073-12.146341v-169.512195a11.756098 11.756098 0 0 1 11.243902-12.195122h45.170732a11.707317 11.707317 0 0 1 11.292683 12.146341v169.512195a11.707317 11.707317 0 0 1-11.219512 12.195122h-0.073171z m448.780488-12.195122v-169.463414a11.756098 11.756098 0 0 0-11.292683-12.195122h-45.121951a11.707317 11.707317 0 0 0-11.317073 12.146341v169.512195a11.707317 11.707317 0 0 0 11.243902 12.195122h45.170732c6.463415-0.243902 11.536585-5.682927 11.292683-12.146341v-0.048781zM812.113951-34.634146a79.853659 79.853659 0 0 1 80.121951-79.609756 79.902439 79.902439 0 0 1 80.097561 79.609756 79.829268 79.829268 0 0 1-80.04878 79.560975h-0.390244a79.804878 79.804878 0 0 1-79.780488-79.560975zM457.357854 44.926829a79.804878 79.804878 0 0 1-80.146342-79.560975 79.902439 79.902439 0 0 1 80.146342-79.609756 79.902439 79.902439 0 0 1 80.097561 79.609756 79.829268 79.829268 0 0 1-79.780488 79.560975h-0.317073zM861.650537-34.634146a31.146341 31.146341 0 1 1 62.292683 0 31.146341 31.146341 0 0 1-62.292683 0z m-435.97561 0a31.146341 31.146341 0 1 1 62.292683 0 31.146341 31.146341 0 0 1-62.292683 0z"  horiz-adv-x="1164" />

    
    <glyph glyph-name="MySubsciptions1" unicode="&#59025;" d="M900.791423 610.129601v-522.556041a90.871523 90.871523 0 0 0-89.566413-92.125453H89.575629a90.845933 90.845933 0 0 0-89.566413 92.125453v522.556041l59.804773 65.588205h781.070299l59.907135-65.588205zM900.765832 610.129601v-522.556041a92.151043 92.151043 0 0 0-92.125453-92.125453h-371.060852V675.692215h401.769337l61.416968-65.588204zM900.791423 742.431988v-157.89279H0.009216v157.89279a90.845933 90.845933 0 0 0 89.566413 92.125453h721.444658a90.845933 90.845933 0 0 0 89.771136-91.869549v-0.255904zM900.765832 742.431988v-157.89279h-463.186305v250.018243h370.90731a92.125453 92.125453 0 0 0 92.278995-91.971911v-0.153542zM153.67959 711.595552a30.708484 30.708484 0 0 0-30.708485 30.708484V865.317106a30.708484 30.708484 0 1 0 61.416969 0v-122.833937a30.708484 30.708484 0 0 0-30.529352-30.887617h-0.179132zM338.109628 711.595552a30.708484 30.708484 0 0 0-30.708484 30.708484V865.317106a30.708484 30.708484 0 0 0 61.416969 0v-122.833937a30.708484 30.708484 0 0 0-30.529352-30.887617h-0.179133zM570.342541 711.595552a30.708484 30.708484 0 0 0-30.708484 30.708484V865.317106a30.682894 30.682894 0 0 0 61.416968 0v-122.833937a30.708484 30.708484 0 0 0-30.529351-30.887617h-0.179133zM754.77258 711.595552a30.708484 30.708484 0 0 0-30.708485 30.708484V865.317106a30.682894 30.682894 0 0 0 61.416969 0v-122.833937a30.708484 30.708484 0 0 0-30.529351-30.887617h-0.179133zM215.096558 471.327252h-61.416968a30.708484 30.708484 0 0 0 0 61.365788h61.416968a30.682894 30.682894 0 0 0 0-61.391378M401.701781 471.327252h-63.566562a30.708484 30.708484 0 0 0 0 61.365788h63.515381a30.682894 30.682894 0 0 0 0-61.391378h0.051181zM571.059072 471.327252h-63.566562a30.708484 30.708484 0 0 0 0 61.365788h63.515381a30.682894 30.682894 0 0 0 0-61.391378h0.051181zM755.386749 471.327252h-61.416968a30.682894 30.682894 0 0 0 0 61.365788h61.416968a30.682894 30.682894 0 0 0 0-61.391378M215.096558 351.538573h-61.416968a30.708484 30.708484 0 0 0-0.127952 61.416969h61.54492a30.708484 30.708484 0 0 0 0-61.416969M401.701781 351.538573h-63.566562a30.734075 30.734075 0 0 0 0 61.416969h63.515381a30.708484 30.708484 0 0 0 0-61.416969h0.051181zM571.059072 351.538573h-63.566562a30.734075 30.734075 0 0 0-0.127952 61.416969h63.643333a30.708484 30.708484 0 0 0 0-61.416969h0.051181zM755.386749 351.538573h-61.416968a30.708484 30.708484 0 0 0 0 61.416969h61.416968a30.708484 30.708484 0 0 0 0-61.416969M215.096558 231.775484h-61.416968a30.734075 30.734075 0 0 0 0 61.416969h61.416968a30.708484 30.708484 0 0 0 0-61.416969M401.701781 231.775484h-63.566562a30.734075 30.734075 0 0 0 0 61.416969h63.515381a30.708484 30.708484 0 0 0 0-61.416969h0.051181zM574.462596 231.775484h-63.540972a30.734075 30.734075 0 0 0 0 61.416969h63.515382a30.708484 30.708484 0 0 0 0-61.416969h0.05118zM215.096558 112.037986h-61.416968A30.682894 30.682894 0 1 0 153.551638 173.378183h61.54492a30.682894 30.682894 0 0 0 0-61.391378M401.701781 112.037986h-63.566562a30.708484 30.708484 0 0 0 0 61.365788h63.515381a30.682894 30.682894 0 0 0 0-61.391379h0.051181zM574.462596 112.037986h-63.540972a30.682894 30.682894 0 1 0-0.153543 61.365788h63.668925a30.682894 30.682894 0 0 0 0-61.391379h0.05118zM808.486837 302.737673A215.164113 215.164113 0 1 1 1023.62536 87.57356a215.420017 215.420017 0 0 1-215.164114 215.164113M1023.62536 87.57356a215.368837 215.368837 0 0 0-215.164114-215.164114V302.737673A215.368837 215.368837 0 0 0 1023.62536 87.57356M891.578877 50.109209l-23.287267 15.763689a23.722304 23.722304 0 0 0-6.653505 30.273447 18.245958 18.245958 0 0 0 26.741972 7.677121l5.73225-3.915332a94.300637 94.300637 0 0 1-88.13335 76.387355 89.438461 89.438461 0 0 1-76.77121-47.188704 18.271548 18.271548 0 0 0-26.997876-6.397601 23.799075 23.799075 0 0 0-5.68107 30.45258 127.286667 127.286667 0 0 0 109.450156 67.2004 134.170486 134.170486 0 0 0 125.392978-105.765138l0.767712 1.458653a18.297139 18.297139 0 0 0 26.767562 7.677121 23.799075 23.799075 0 0 0 6.653505-30.299038l-13.94677-26.281344a42.889516 42.889516 0 0 0-37.566712-24.003799c-8.035387 0-15.86605 2.405498-22.442784 6.96059m-198.402399-16.531401l-0.793303-1.458653a19.167212 19.167212 0 0 0-16.736124-10.722379 17.555017 17.555017 0 0 0-10.031438 3.17321 23.671123 23.671123 0 0 0-6.679095 30.273448l13.94677 26.281344a40.944646 40.944646 0 0 0 60.035086 16.992028l23.261677-15.814869a23.799075 23.799075 0 0 0 6.653505-30.299038 18.322729 18.322729 0 0 0-26.716381-7.677121l-5.757841 4.043284a94.326228 94.326228 0 0 1 88.030988-76.489717 89.41287 89.41287 0 0 1 76.771211 47.214295 18.169187 18.169187 0 0 0 27.125828 6.448782 23.799075 23.799075 0 0 0 5.68107-30.529352 127.235487 127.235487 0 0 0-109.578109-67.2004 134.119305 134.119305 0 0 0-125.213844 105.765138"  horiz-adv-x="1024" />

    
    <glyph glyph-name="Mypets" unicode="&#59024;" d="M673.682058 462.40004q-0.422094 0.731088-0.948629 1.401877a180.583865 180.583865 0 0 1-305.317359-192.400777l0.168837-0.292435a62.542268 62.542268 0 0 0 1.46574-60.425911 185.359557 185.359557 0 0 1 305.334925-205.941647 144.018467 144.018467 0 0 0 83.135175 47.998116 185.335438 185.335438 0 0 1-14.080617 366.549784 97.009257 97.009257 0 0 0-69.758072 43.110993zM91.623106 252.513086a89.07389 89.07389 0 1 1 154.280503 89.07389 89.07389 89.07389 0 1 1-154.280503-89.07389ZM115.090766 535.214015a108.080179 108.080179 0 1 1 187.200361 108.080179 108.080179 108.080179 0 1 1-187.200361-108.080179ZM680.149125 592.298741a89.07389 89.07389 0 1 1 154.280503 89.07389 89.07389 89.07389 0 1 1-154.280503-89.07389ZM390.669249 694.319327a108.080179 108.080179 0 1 1 187.200362 108.080179 108.080179 108.080179 0 1 1-187.200362-108.080179ZM433.719656 55.984737a185.118361 185.118361 0 0 0-9.165469 186.734377 62.542268 62.542268 0 0 1-1.471299 60.419739l-0.168838 0.289436a180.583865 180.583865 0 0 0 39.797433 228.171947 178.774891 178.774891 0 0 1-22.238323-9.720222 180.583865 180.583865 0 0 1-73.058439-250.506748l0.168838-0.265316a62.542268 62.542268 0 0 0 1.447179-60.443859 185.335438 185.335438 0 0 1 249.469604-250.193192 187.023813 187.023813 0 0 1 34.008715 22.624237 185.938429 185.938429 0 0 0-218.789401 72.889601zM813.025368 84.759487a144.066706 144.066706 0 0 1-71.587139-36.010647 144.573219 144.573219 0 0 0 16.160169 4.003863 185.287198 185.287198 0 0 1 66.280815 26.314545 184.008856 184.008856 0 0 1 18.861571 13.892922 183.719421 183.719421 0 0 0-29.715416-8.200683zM147.105783 284.542598a89.07389 89.07389 0 0 0 7.838888 100.482487 89.07389 89.07389 0 1 1 83.116335-143.994347 89.09801 89.09801 0 0 0-90.955223 43.51186zM170.550088 567.224968a108.128418 108.128418 0 0 0 14.230597 127.448262 108.080179 108.080179 0 1 1 103.256248-178.84725 108.128418 108.128418 0 0 0-117.486845 51.374868zM735.625392 624.316194a89.07389 89.07389 0 0 0 7.838888 100.506607 89.07389 89.07389 0 1 1 83.140454-143.994347 89.09801 89.09801 0 0 0-90.979342 43.48774zM446.117159 726.318219a108.128418 108.128418 0 0 0 14.254717 127.472383 108.080179 108.080179 0 1 1 103.256248-178.84725 108.128418 108.128418 0 0 0-117.510965 51.374867z"  horiz-adv-x="1024" />

    
    <glyph glyph-name="FAQ" unicode="&#59026;" d="M139.970757 895.897607h590.24245a140.380328 140.380328 0 0 0 139.970757-139.970757v-47.638182H336.283072a140.380328 140.380328 0 0 1-139.970757-139.970757V219.440543h-56.31596a140.380328 140.380328 0 0 0-139.970757 139.970757V756.029243A140.380328 140.380328 0 0 0 139.970757 895.897607zM239.214836 721.266937h590.24245a138.793242 138.793242 0 0 0 40.726678-6.092363v-0.307178H336.283072a140.380328 140.380328 0 0 1-139.970757-139.970757v-348.979761h-56.31596a138.793242 138.793242 0 0 0-40.726678 6.092363V581.29618a140.380328 140.380328 0 0 0 139.945159 139.970757zM293.687728 734.424393h590.24245a140.380328 140.380328 0 0 0 139.970757-139.970757v-396.592345a140.380328 140.380328 0 0 0-139.970757-139.970757H529.677196a23.601507 23.601507 0 0 1-23.038347-28.925924 593.083846 593.083846 0 0 1 45.027169-125.661384 21.502457 21.502457 0 0 0-30.717796-27.850802 789.677741 789.677741 0 0 0-193.061348 166.388062 44.284823 44.284823 0 0 1-34.301539 16.126843 140.380328 140.380328 0 0 0-139.868364 139.868364V594.453636a140.380328 140.380328 0 0 0 139.970757 139.970757zM434.452028 28.939012a23.601507 23.601507 0 0 0 23.038347 28.925924h90.643096a23.601507 23.601507 0 0 1-23.038347-28.925924 593.007052 593.007052 0 0 1 45.02717-125.661384 21.502457 21.502457 0 0 0-30.717796-27.850802A850.985342 850.985342 0 0 0 470.033475-76.730207a591.035993 591.035993 0 0 0-35.581447 105.669219zM933.257839 193.765585V578.864354a138.409269 138.409269 0 0 1-139.970757 135.926248h90.643096a138.409269 138.409269 0 0 0 139.970757-135.926248v-385.098769a138.409269 138.409269 0 0 0-139.970757-135.926247H793.287082a138.409269 138.409269 0 0 1 139.970757 135.926247zM829.918053 375.102974m-46.460666 0a46.460666 46.460666 0 1 1 92.921333 0 46.460666 46.460666 0 1 1-92.921333 0ZM679.887218 375.102974m-46.460666 0a46.460666 46.460666 0 1 1 92.921333 0 46.460666 46.460666 0 1 1-92.921333 0ZM529.856383 375.102974m-46.460667 0a46.460666 46.460666 0 1 1 92.921333 0 46.460666 46.460666 0 1 1-92.921333 0ZM379.825548 375.102974m-46.460667 0a46.460666 46.460666 0 1 1 92.921333 0 46.460666 46.460666 0 1 1-92.921333 0ZM829.892455 375.102974a46.40947 46.40947 0 0 1-23.217534 40.214715 46.460666 46.460666 0 1 0 0-80.429429 46.40947 46.40947 0 0 1 23.217534 40.214714zM690.715241 375.102974a46.40947 46.40947 0 0 1-23.217534 40.214715 46.460666 46.460666 0 1 0 0-80.429429 46.40947 46.40947 0 0 1 23.217534 40.214714zM546.188011 375.102974a46.40947 46.40947 0 0 1-23.217534 40.214715 46.460666 46.460666 0 1 0 0-80.429429 46.40947 46.40947 0 0 1 23.217534 40.214714zM401.635183 375.102974a46.40947 46.40947 0 0 1-23.217534 40.214715 46.460666 46.460666 0 1 0 0-80.429429 46.40947 46.40947 0 0 1 23.217534 40.214714z"  horiz-adv-x="1024" />

    
    <glyph glyph-name="MyServices" unicode="&#59028;" d="M853.291648 43.904l3.456 68.3776a31.4624 31.4624 0 0 0 20.1728 27.7248l63.8208 24.4224a97.9456 97.9456 0 0 1 47.232 144.8192l-37.1968 57.6768a30.4384 30.4384 0 0 0 0 34.0224l37.1968 57.4976a97.8944 97.8944 0 0 1-47.2576 144.9472l-64 24.576a30.72 30.72 0 0 0-19.8144 27.392l-3.7888 68.3776a17.92 17.92 0 0 1-0.3072 4.096 97.6384 97.6384 0 0 1-39.8592 70.4256 98.9696 98.9696 0 0 1-83.0464 15.36l-66.3296-17.92a30.72 30.72 0 0 0-32.1536 10.3936l-43.1616 53.248a97.792 97.792 0 0 1-152.3712 0.1536l-43.2896-53.2992a30.72 30.72 0 0 0-32.1536-10.3936l-66.3296 17.92a99.1744 99.1744 0 0 1-83.0464-15.36 97.9456 97.9456 0 0 1-40.1664-74.5216L167.109248 655.36a30.3104 30.3104 0 0 0-19.8656-27.4176l-64-24.576A97.8432 97.8432 0 0 1 36.165248 458.24l37.504-57.344a31.616 31.616 0 0 0-0.1536-34.2016L36.165248 309.248a97.9456 97.9456 0 0 1 47.104-144.7936l64-24.4224a31.6416 31.6416 0 0 0 19.8656-27.7248l3.456-68.3776a48.64 48.64 0 0 1 0.7936-8.3456 98.304 98.304 0 0 1 122.752-81.152l66.0224 17.92a31.2832 31.2832 0 0 0 32.4608-10.7264l43.1616-53.248a98.3552 98.3552 0 0 1 152.5248 0l42.8544 53.248a31.2832 31.2832 0 0 0 32.4608 10.7264l66.3296-17.92a98.1504 98.1504 0 0 1 123.2128 89.6zM812.587648-29.952a96.0768 96.0768 0 0 0-83.0208-15.36l-66.56 17.92a31.3344 31.3344 0 0 1-32.512-10.7264l-42.9312-53.3504a98.5344 98.5344 0 0 0-152.8064 0l-43.2384 53.3504a31.3344 31.3344 0 0 1-32.512 10.7264l-66.1504-17.92a98.5088 98.5088 0 0 0-122.88 81.3056L853.163648 719.0528l3.4816-62.1824a30.72 30.72 0 0 1 19.8912-27.4688l64-24.6272a98.0736 98.0736 0 0 0 47.36-145.2288L950.494848 401.92a30.4896 30.4896 0 0 1 0-34.0992l37.248-57.7792a98.1248 98.1248 0 0 0-47.2064-145.0752l-64-24.4736a31.5136 31.5136 0 0 1-20.1984-27.776l-3.4816-68.5056a96.5888 96.5888 0 0 0-40.2688-74.1632zM376.901248 430.1568a66.9696 66.9696 0 1 0 66.9696 66.9696 67.0464 67.0464 0 0 0-66.9696-66.9696z m0 66.9184z m0 0z m0 0z m0 0z m0 0z m0 0z m0 0z m0 0zM621.944448 185.1136a66.9696 66.9696 0 1 0 66.9696 66.9696 67.0464 67.0464 0 0 0-66.9696-66.9696z m0 66.9184z m0 0z m0 0z m0 0z m0 0z m0 0z m0 0z m0 0zM322.629248 186.6496a33.4848 33.4848 0 0 0 0 47.36l315.6992 315.6992a33.4848 33.4848 0 0 0 47.36-47.36L369.989248 186.6496a33.4848 33.4848 0 0 0-47.36 0zM369.963648 186.7264l315.6992 315.6992a33.4848 33.4848 0 0 1 0 47.36L322.603648 186.7264a33.4848 33.4848 0 0 1 47.36 0z"  horiz-adv-x="1024" />

    
    <glyph glyph-name="Myinformation" unicode="&#59023;" d="M511.023726 895.961601l-172.639926-275.522467 172.639926-275.522468a275.548067 275.548067 0 1 1 0 551.070534zM237.293191 620.439134a275.522468 275.522468 0 0 1 275.522468-275.522468V895.961601A275.522468 275.522468 0 0 1 237.293191 620.439134zM652.714413 272.445783c78.845043 0 312.666675-84.937615 318.016874-398.858643 0.588778 0.358387-2.559904 4.172644 0 0-2.559904-3.532668-324.467832 0-461.217904 0l-121.237054 190.431259 121.237054 208.427384zM371.252967 272.445783c-78.845043 0-312.666675-84.937615-318.016874-398.858643-0.588778 0.358387 2.559904 4.172644 0 0 2.559904-3.532668 324.467832 0 461.217904 0V272.445783z"  horiz-adv-x="1024" />

    
    <glyph glyph-name="chenggong" unicode="&#59020;" d="M512 896C230.4 896 0 665.6 0 384c0-281.6 230.4-512 512-512 281.6 0 512 230.4 512 512C1024 665.6 793.6 896 512 896zM512-64c-249.6 0-448 204.8-448 448 0 249.6 204.8 448 448 448 249.6 0 448-198.4 448-448C960 134.4 761.6-64 512-64zM691.2 556.8 454.4 320 332.8 441.6c-19.2 19.2-51.2 19.2-76.8 0C243.2 416 243.2 384 262.4 364.8l153.6-153.6c19.2-19.2 51.2-19.2 70.4 0l51.2 51.2 224 224c19.2 19.2 25.6 51.2 0 70.4C742.4 576 710.4 576 691.2 556.8z"  horiz-adv-x="1024" />

    
    <glyph glyph-name="dingzi" unicode="&#58967;" d="M51.196547-128c-13.021885 0-26.01777 5.090955-36.020681 15.093866-18.11384 18.164839-20.262821 46.049592-5.091955 66.337413l213.058113 288.323446L56.159503 408.736246c-16.295856 16.296856-19.519827 41.77763-7.853931 61.989451 7.981929 12.611888 76.699321 112.821001 229.481968 75.009335 2.532978-0.306997 5.269953-0.536995 8.211927-0.792993 6.267944-0.536995 13.277882-1.17699 20.875815-2.404978 32.337714-5.244954 89.516207 20.722816 139.147767 63.037441 47.559579 40.497641 78.284307 87.750223 78.284307 120.342934 0 7.572933-0.178998 15.631862-0.357997 23.536792-1.278989 30.623729-3.222971 77.696312 31.979717 112.874 41.649631 41.699631 107.552047 45.051601 153.268642 7.853931a28.467748 28.467748 0 0 0 2.583977-2.379979h-0.024999c24.584782-24.047787 276.60555-275.812557 279.240526-278.473534 21.694808-21.694808 33.642702-50.526552 33.693702-81.175281 0.025-30.674728-11.896895-59.455473-33.539703-81.099281-35.02369-35.04969-82.352271-33.053707-113.563994-31.722719-7.393935 0.152999-15.477863 0.331997-23.024796 0.331997-30.827727 0-67.6934-21.591809-103.715082-60.759462-50.80855-55.259511-82.096273-126.637878-79.409296-158.616595 1.12499-10.259909 3.222971-28.371749 3.605968-30.929726 36.891673-149.611675-63.113441-217.84207-74.626339-225.108006-20.696817-12.483889-46.356589-9.388917-63.011442 7.239936L359.01482 105.882928c-10.003911 10.002911-10.003911 26.171768 0 36.17468s26.170768 10.002911 36.17468 0l178.39142-178.39142c7.85393 5.089955 80.101291 54.645516 51.319545 171.765479-0.510995 2.353979-3.043973 23.561791-4.373961 35.969681-4.297962 51.115547 35.586685 136.026795 92.688179 198.117245 32.439713 35.253688 83.273262 77.287315 141.347748 77.287316 7.90493 0 16.398855-0.179998 24.661781-0.358997 32.413713-1.354988 58.048486-0.971991 75.777329 16.782851 11.972894 11.972894 18.547836 27.885753 18.547836 44.847603-0.025 17.012849-6.676941 33.002708-18.700834 45.052601-2.634977 2.634977-271.0036 270.619603-278.90853 278.217536-24.278785 19.724825-60.709462 17.882842-83.785258-5.219954-17.908841-17.907841-18.317838-43.490615-17.012849-75.086335 0.203998-8.799922 0.383997-17.242847 0.383996-25.147777 0-48.378571-35.995681-107.936044-96.270147-159.281589-49.478562-42.135627-122.978911-83.810258-180.490401-74.60034-6.292944 1.022991-12.049893 1.509987-17.191848 1.943983-3.324971 0.280998-6.420943 0.562995-9.311918 0.920992-2.455978 0.076999-4.859957 0.536995-7.188936 1.304988-117.758957 29.036743-167.595516-43.440615-172.891468-51.806541l182.741381-182.024387c8.953921-8.953921 10.027911-23.101795 2.480978-33.309705L51.171547-77.114451l238.614886 174.528454c11.435899 8.365926 27.424757 5.806949 35.739684-5.60295s5.806949-27.399757-5.602951-35.713684L81.103282-118.022088C72.149361-124.700029 61.685454-128 51.196547-128z"  horiz-adv-x="1025" />

    
    <glyph glyph-name="calendar" unicode="&#59214;" d="M859.428571 786.285714h-82.285714V821.028571c0 20.114286-16.457143 38.4-38.4 38.4-20.114286 0-38.4-16.457143-38.4-38.4V786.285714H338.285714V821.028571c0 20.114286-16.457143 38.4-38.4 38.4s-38.4-16.457143-38.4-38.4V786.285714H164.571429c-71.314286 0-128-56.685714-128-128v-621.714285c0-71.314286 56.685714-128 128-128h694.857142c71.314286 0 128 56.685714 128 128V658.285714c0 71.314286-56.685714 128-128 128z m53.028572-749.714285c0-29.257143-23.771429-53.028571-53.028572-53.028572H164.571429c-29.257143 0-53.028571 23.771429-53.028572 53.028572V455.314286h799.085714V36.571429z m0 493.714285H111.542857v128c0 29.257143 23.771429 53.028571 53.028572 53.028572h98.742857v-27.428572c0-20.114286 16.457143-38.4 38.4-38.4s38.4 16.457143 38.4 38.4v27.428572h362.057143v-27.428572c0-20.114286 16.457143-38.4 38.4-38.4 20.114286 0 38.4 16.457143 38.4 38.4v27.428572H859.428571c29.257143 0 53.028571-23.771429 53.028572-53.028572v-128zM237.714286 290.742857h73.142857c7.314286 0 14.628571 7.314286 14.628571 14.628572v38.4c0 7.314286-7.314286 14.628571-14.628571 14.628571h-73.142857c-7.314286 0-14.628571-7.314286-14.628572-14.628571v-38.4c0-7.314286 7.314286-14.628571 14.628572-14.628572zM237.714286 129.828571h73.142857c7.314286 0 14.628571 7.314286 14.628571 14.628572V182.857143c0 7.314286-7.314286 14.628571-14.628571 14.628571h-73.142857c-7.314286 0-14.628571-7.314286-14.628572-14.628571v-38.4c0-9.142857 7.314286-14.628571 14.628572-14.628572zM475.428571 290.742857h73.142858c7.314286 0 14.628571 7.314286 14.628571 14.628572v38.4c0 7.314286-7.314286 14.628571-14.628571 14.628571h-73.142858c-7.314286 0-14.628571-7.314286-14.628571-14.628571v-38.4c0-7.314286 7.314286-14.628571 14.628571-14.628572zM475.428571 129.828571h73.142858c7.314286 0 14.628571 7.314286 14.628571 14.628572V182.857143c0 7.314286-7.314286 14.628571-14.628571 14.628571h-73.142858c-7.314286 0-14.628571-7.314286-14.628571-14.628571v-38.4c0-9.142857 7.314286-14.628571 14.628571-14.628572zM714.971429 290.742857h73.142857c7.314286 0 14.628571 7.314286 14.628571 14.628572v38.4c0 7.314286-7.314286 14.628571-14.628571 14.628571h-73.142857c-7.314286 0-14.628571-7.314286-14.628572-14.628571v-38.4c0-7.314286 5.485714-14.628571 14.628572-14.628572zM714.971429 129.828571h73.142857c7.314286 0 14.628571 7.314286 14.628571 14.628572V182.857143c0 7.314286-7.314286 14.628571-14.628571 14.628571h-73.142857c-7.314286 0-14.628571-7.314286-14.628572-14.628571v-38.4c0-9.142857 5.485714-14.628571 14.628572-14.628572z"  horiz-adv-x="1024" />

    
    <glyph glyph-name="refresh" unicode="&#58997;" d="M981.448462 762.819212a35.367512 35.367512 0 0 1-35.367512-35.367512v-85.103076a505.092283 505.092283 0 0 1-939.449541-221.046951 35.367512 35.367512 0 0 1 32.604425-38.130599 35.367512 35.367512 0 0 1 35.367512 32.604425 434.357258 434.357258 0 0 0 819.53157 165.785213h-93.944954a35.367512 35.367512 0 1 1 0-71.287641h181.2585a35.367512 35.367512 0 0 1 35.367512 35.367512V727.4517a35.367512 35.367512 0 0 1-35.367512 35.367512z m0-379.095521a35.367512 35.367512 0 0 1-38.130599-32.604425 434.357258 434.357258 0 0 0-819.531571-165.785213h100.023746a35.367512 35.367512 0 1 1 0 71.287642H42.551538a35.367512 35.367512 0 0 1-35.367512-35.367513v-181.258499a35.367512 35.367512 0 1 1 71.287642 0v85.655693a505.092283 505.092283 0 0 1 939.449541 221.046951 35.367512 35.367512 0 0 1-34.814895 37.025364z"  horiz-adv-x="1024" />

    
    <glyph glyph-name="xingzhuang21" unicode="&#58937;" d="M980.406857 709.083429L604.233143 881.115429a182.491429 182.491429 0 0 1-144.420572 0L83.638857 705.828571C30.317714 682.605714 0 636.306286 0 583.314286v-393.764572c0-52.882286 34.157714-99.254857 83.638857-125.659428l376.173714-175.396572c22.747429-9.947429 49.408-16.530286 72.192-16.530285 26.624 0 49.408 6.582857 72.228572 16.530285l372.406857 172.032c53.174857 26.477714 87.405714 72.850286 83.602286 125.805715V583.314286c3.803429 52.955429-26.587429 99.254857-79.835429 125.805714zM497.846857 818.285714c10.24 6.290286 22.052571 9.728 34.157714 9.947429 11.373714 0 22.820571-3.364571 34.194286-6.582857L942.445714 649.508571c3.803429-3.291429 11.373714-6.582857 15.177143-9.947428L532.004571 441.051429 106.422857 636.342857c3.803429 3.218286 11.373714 6.582857 15.177143 9.874286l376.246857 172.032zM121.6 126.756571c-26.514286 13.238857-45.604571 36.425143-41.837714 62.902858v380.342857l155.830857-72.777143v-158.793143c0-13.165714 7.570286-26.477714 22.820571-33.060571l26.587429-13.238858c3.766857 0 3.766857-3.291429 7.570286-3.291428 11.446857 0 19.017143 6.582857 19.017142 16.530286v155.611428l178.614858-82.834286v-426.788571l-368.64 175.323429v0.073142z m820.845714 0l-372.406857-172.032v426.788572L984.283429 570.148571v-380.525714c0-26.404571-15.250286-49.590857-41.837715-62.829714z"  horiz-adv-x="1060" />

    


  </font>
</defs>
</svg>
