<?xml version="1.0" encoding="UTF-8"?>
<svg width="16px" height="15px" viewBox="0 0 16 15" version="1.1" xmlns="http://www.w3.org/2000/svg" xmlns:xlink="http://www.w3.org/1999/xlink">
    <!-- Generator: Sketch 54.1 (76490) - https://sketchapp.com -->
    <title>Fill 5</title>
    <desc>Created with Sketch.</desc>
    <g id="最后" stroke="none" stroke-width="1" fill="none" fill-rule="evenodd">
        <path d="M12,15.0017 C11.784,15.0017 11.573,14.9327 11.4,14.8027 L8,12.2517 L4.601,14.8027 C4.158,15.1337 3.531,15.0447 3.2,14.6027 C3.028,14.3737 2.963,14.0827 3.02,13.8027 L3.9,9.4247 L0.4,6.8027 C-0.042,6.4707 -0.131,5.8437 0.2,5.4017 C0.389,5.1497 0.686,5.0017 1,5.0017 L5.323,5.0017 L7.071,0.6307 C7.275,0.1167 7.857,-0.1333 8.37,0.0707 C8.625,0.1727 8.827,0.3747 8.929,0.6307 L10.677,5.0017 L15,5.0017 C15.553,5.0017 16,5.4497 16,6.0017 C16,6.3167 15.852,6.6127 15.601,6.8027 L12.101,9.4247 L12.98,13.8027 C13.091,14.3437 12.741,14.8717 12.2,14.9817 C12.135,14.9957 12.067,15.0017 12,15.0017" id="Fill-5" fill="#D7D7D7"></path>
    </g>
</svg>