<?xml version="1.0" encoding="UTF-8"?>
<svg width="19px" height="18px" viewBox="0 0 19 18" version="1.1" xmlns="http://www.w3.org/2000/svg" xmlns:xlink="http://www.w3.org/1999/xlink">
    <!-- Generator: Sketch 54.1 (76490) - https://sketchapp.com -->
    <title>Stroke 9复制</title>
    <desc>Created with Sketch.</desc>
    <g id="最后" stroke="none" stroke-width="1" fill="none" fill-rule="evenodd">
        <path d="M10.0588658,0.39675 L12.5838658,5.51275 L18.2318658,6.33375 C18.8148658,6.41775 19.0478658,7.13575 18.6248658,7.54775 L14.5388658,11.53075 L15.5038658,17.15475 C15.6038658,17.73675 14.9938658,18.17975 14.4718658,17.90475 L9.42086581,15.24975 L4.37086581,17.90475 C3.84786581,18.17975 3.23786581,17.73675 3.33686581,17.15475 L4.30186581,11.53075 L0.215865808,7.54775 C-0.207134192,7.13575 0.0268658082,6.41775 0.610865808,6.33375 L6.25686581,5.51275 L8.78286581,0.39675 C9.04286581,-0.13225 9.79786581,-0.13225 10.0588658,0.39675 Z M6.92085066,6.4267153 L6.40076508,6.50234234 L1.33214094,7.23938349 L5.37637681,11.1816721 L5.2884306,11.6942208 L5.2864938,11.7055084 L4.42118324,16.7485149 L9.42081974,14.1199932 L9.8861427,14.3645848 L14.4193593,16.7474183 L13.4643548,11.1816721 L13.840842,10.8146754 L17.5088228,7.23915732 L11.919796,6.42672973 L9.42081459,1.3634471 L6.92085066,6.4267153 Z" id="Stroke-9复制" fill="#FD980E" fill-rule="nonzero"></path>
    </g>
</svg>