<?xml version="1.0" encoding="UTF-8"?>
<svg width="16px" height="15px" viewBox="0 0 16 15" version="1.1" xmlns="http://www.w3.org/2000/svg" xmlns:xlink="http://www.w3.org/1999/xlink">
    <!-- Generator: Sketch 54.1 (76490) - https://sketchapp.com -->
    <title>Fill 1</title>
    <desc>Created with Sketch.</desc>
    <g id="最后" stroke="none" stroke-width="1" fill="none" fill-rule="evenodd">
        <path d="M11.3999504,14.8025 L7.99995043,12.2515 L4.59995043,14.8025 C4.15795043,15.1335 3.53095043,15.0445 3.19995043,14.6025 C3.02795043,14.3735 2.96195043,14.0825 3.01995043,13.8025 L3.89995043,9.4245 L0.399950434,6.8025 C-0.0420495663,6.4705 -0.131049566,5.8435 0.199950434,5.4025 C0.387950434,5.1505 0.684950434,5.0015 0.999950434,5.0015 L5.32295043,5.0015 L7.07095043,0.6305 C7.27495043,0.1165 7.85695043,-0.1335 8.36995043,0.0715 C8.62495043,0.1725 8.82695043,0.3745 8.92795043,0.6305 L10.6759504,5.0015 L14.9999504,5.0015 C15.5519504,5.0015 15.9999504,5.4495 15.9999504,6.0015 C15.9999504,6.3175 15.8509504,6.6135 15.5999504,6.8025 L12.0999504,9.4245 L12.9799504,13.8025 C13.0899504,14.3435 12.7409504,14.8715 12.1999504,14.9825 C11.9199504,15.0395 11.6289504,14.9735 11.3999504,14.8025" id="Fill-1" fill="#E2001A"></path>
    </g>
</svg>