<?xml version="1.0" encoding="UTF-8"?>
<svg width="100px" height="60px" viewBox="0 0 100 60" version="1.1" xmlns="http://www.w3.org/2000/svg" xmlns:xlink="http://www.w3.org/1999/xlink">
    <title>diners</title>
    <g id="页面-2" stroke="none" stroke-width="1" fill="none" fill-rule="evenodd">
        <g id="diners" fill-rule="nonzero">
            <path d="M91.9642857,60 L8.03571429,60 C3.59821429,60 0,56.5083032 0,52.2021661 L0,7.79783394 C0,3.49169675 3.59821429,0 8.03571429,0 L91.9642857,0 C96.4017857,0 100,3.49169675 100,7.79783394 L100,52.2021661 C100,56.5083032 96.4017857,60 91.9642857,60 Z" id="路径" fill="#F7F9FB"></path>
            <path d="M63.4709821,21.0883394 C63.4296875,20.6250181 63.3638393,20.1672924 63.2633929,19.7129242 C62.8649554,17.9077617 62.0491071,16.3141155 60.8069196,14.9487726 C59.1964286,13.1771841 57.2064732,12.0558123 54.8828125,11.5197473 C54.2265625,11.3686643 53.5602679,11.2768953 52.8872768,11.2522744 C52.8169643,11.2500361 52.7421875,11.2556318 52.6808036,11.2086282 L46.9185268,11.2086282 C46.8459821,11.2623466 46.7600446,11.2511552 46.6785714,11.2533935 C46.2979911,11.2634657 45.9196429,11.3071119 45.5435268,11.3641877 C44.8113839,11.4749819 44.0970982,11.6562816 43.4006696,11.9103249 C41.7243304,12.5247292 40.2834821,13.4894224 39.1071429,14.8357401 C37.4754464,16.703574 36.6595982,18.9049097 36.5066964,21.3658845 C36.4743304,21.8840433 36.4799107,22.4044404 36.5256696,22.9248375 C36.5669643,23.3937545 36.6305804,23.8581949 36.734375,24.3159206 C37.2589286,26.6258123 38.4308036,28.5473646 40.2131696,30.0951264 C41.2120536,30.9624549 42.3381696,31.6149097 43.5803571,32.0670397 C44.4871625,32.3966589 45.4344576,32.6010951 46.3962054,32.6747292 C46.7857143,32.7049458 47.1774554,32.7172563 47.5703125,32.7138989 C48.4363839,32.706065 49.3035714,32.7172563 50.1696429,32.7105415 C51.1183036,32.7027076 52.0669643,32.7385199 53.015625,32.6848014 C53.4397321,32.6612996 53.8604911,32.614296 54.2779018,32.5381949 C55.4520089,32.3255596 56.5691964,31.9416968 57.6194196,31.3720578 C59.890625,30.1410108 61.6082589,28.3817329 62.6763393,26.0102888 C63.1417411,24.9784477 63.4118304,23.891769 63.4910714,22.7636823 C63.5290179,22.2063538 63.5212054,21.646787 63.4709821,21.0883394 L63.4709821,21.0883394 Z M47.3113839,31.8275451 C41.7444196,31.809639 37.4642857,27.2659567 37.4598179,21.9590253 C37.4553571,16.67 41.6986607,12.0770758 47.3069196,12.0759565 C52.7645089,12.0748375 57.1462054,16.4752708 57.1484377,21.9455957 C57.1495536,27.4517329 52.7243304,31.8074007 47.3113839,31.8275451 L47.3113839,31.8275451 Z" id="形状" fill="#04568E"></path>
            <path d="M49.5736607,16.1854152 C49.5357143,16.259278 49.5513393,16.3275451 49.5513393,16.3924549 C49.5502232,20.0990253 49.5502232,23.8055957 49.5502232,27.5121661 C49.5502232,27.5457401 49.5491071,27.5781949 49.5502232,27.611769 C49.5513393,27.6487004 49.5424107,27.6912274 49.5859375,27.7147292 C51.5223214,27.0107942 53.5625,24.8396751 53.4966518,21.8012274 C53.4352679,19.0123466 51.5412946,16.8971841 49.5736607,16.1854152 L49.5736607,16.1854152 Z M45.0401786,16.2077978 C45.0401786,16.2033213 45.0345982,16.1988448 45.0301339,16.1954874 C45.0256696,16.19213 45.0200893,16.1898917 45.015625,16.1876534 C42.9441964,16.9710469 41.0479911,19.1544765 41.1116071,22.0922022 C41.1741071,24.9370397 43.0680804,26.983935 45.0245536,27.7113718 C45.0546875,27.678917 45.0513393,27.6509386 45.0513393,27.6229603 C45.0446429,23.8179061 45.0636161,20.012852 45.0401786,16.2077978 L45.0401786,16.2077978 Z" id="形状" fill="#04568E"></path>
            <path d="M29.359375,48.6391697 C29.2823661,48.6134296 29.2310268,48.5552347 29.1785714,48.4970397 C28.2042411,47.4058845 27.2287946,46.3158484 26.2533482,45.2258123 C26.2232143,45.1922383 26.1919643,45.1609025 26.1618304,45.1295668 C26.1026786,45.1474729 26.1216518,45.1944765 26.1216518,45.2291697 C26.1216518,46.0427798 26.1216518,46.8563899 26.1238839,47.67 C26.1238839,47.7651264 26.1261161,47.8602527 26.1506696,47.9542599 C26.2020089,48.1568231 26.3046875,48.2463538 26.5122768,48.2709747 C26.6049107,48.2821661 26.7008929,48.2664982 26.7935268,48.2933574 C26.8147321,48.3649819 26.8125,48.4298917 26.7957589,48.5071119 L25.1216518,48.5071119 C25.0948661,48.4377256 25.1015625,48.3728159 25.1127232,48.3079061 C25.1685268,48.2597834 25.2332589,48.2810469 25.2924107,48.2754513 C25.5022321,48.256426 25.6328125,48.1568231 25.6986607,47.9553791 C25.75,47.7987004 25.7555804,47.6353069 25.7566964,47.4730325 C25.7600446,46.6370397 25.7555804,45.8010469 25.7589286,44.9650542 C25.7600446,44.5823105 25.5613839,44.4323466 25.3627232,44.3741516 C25.2890625,44.3528881 25.2087054,44.3540072 25.1328125,44.3450542 C25.0837054,44.2823827 25.1149554,44.2141155 25.1071429,44.1525632 C25.1707589,44.0966065 25.2410714,44.1167509 25.3058036,44.1189892 C25.625,44.1301805 25.9441964,44.1413718 26.2622768,44.1189892 C26.3805804,44.1111552 26.4587054,44.1525632 26.5357143,44.2398556 C27.3582589,45.173213 28.1841518,46.1043321 29.0089286,47.0354513 C29.0479911,47.0802166 29.0814732,47.1316968 29.1395089,47.1641516 C29.1752232,47.1104332 29.1618304,47.0600722 29.1618304,47.0119495 C29.1629464,46.3326354 29.1629464,45.6544404 29.1629464,44.9751264 C29.1629464,44.88 29.1618304,44.7848736 29.1328125,44.6919856 C29.0736607,44.4972563 28.9363839,44.3831047 28.734375,44.3596029 C28.6573661,44.3506498 28.578125,44.3674368 28.5055804,44.3416968 C28.4743304,44.2711913 28.4910714,44.2051625 28.4933036,44.1189892 C29.0513393,44.125704 29.6015625,44.1447292 30.1573661,44.1122744 C30.1741071,44.2006859 30.1752232,44.2655957 30.1607143,44.3316245 C30.1037946,44.3719134 30.0401786,44.3540072 29.9810268,44.3584838 C29.7633929,44.3741516 29.65625,44.4536101 29.5870536,44.6606498 C29.5334821,44.8229242 29.5267857,44.9907942 29.5267857,45.1597834 L29.5267857,47.0623105 C29.5267857,47.3711913 29.5290179,47.6800722 29.5267857,47.9878339 C29.5245536,48.2071841 29.5446429,48.424296 29.5636161,48.6425271 C29.4944196,48.6391697 29.4263393,48.6391697 29.359375,48.6391697 L29.359375,48.6391697 Z M60.765625,48.6391697 C60.65625,48.5921661 60.5379464,48.5932852 60.4229911,48.5686643 C59.5546875,48.3851264 58.9285714,47.9072563 58.6741071,47.0376895 C58.2790179,45.6891336 59.0524554,44.3696751 60.3482143,44.0831769 C61.109375,43.9141877 61.8337054,44.0372924 62.4709821,44.5039711 C63.1082589,44.9706498 63.3493304,45.6264621 63.2979911,46.4031408 C63.28125,46.6616606 63.2310268,46.915704 63.1339286,47.1563177 C62.8147321,47.9408303 62.2310268,48.4030325 61.4084821,48.5731408 C61.3058036,48.5944043 61.1975446,48.5888087 61.1015625,48.6402888 C60.9888393,48.6391697 60.8772321,48.6391697 60.765625,48.6391697 L60.765625,48.6391697 Z M62.3805804,46.3606137 C62.3883929,46.1714801 62.3638393,45.9487726 62.3113839,45.7305415 C62.2165179,45.3298917 62.046875,44.9706498 61.7455357,44.6807942 C61.2064732,44.1637545 60.1216518,44.2085199 59.7220982,45.0467509 C59.6662946,45.1631408 59.6194196,45.2828881 59.5870536,45.408231 C59.4832589,45.8044043 59.4709821,46.2061733 59.5290179,46.6101805 C59.5859375,47.0085921 59.6997768,47.3879783 59.9386161,47.7192419 C60.2823661,48.1971119 60.75,48.3672202 61.3214286,48.256426 C61.8046875,48.1624188 62.0892857,47.845704 62.2399554,47.393574 C62.3459821,47.0701444 62.3783482,46.7355235 62.3805804,46.3606137 L62.3805804,46.3606137 Z M67.6506696,48.6391697 C67.5691964,48.6067148 67.5189732,48.5384477 67.4631696,48.4768953 C66.4988839,47.3991697 65.5357143,46.321444 64.5714286,45.2437184 C64.5345982,45.2023105 64.5033482,45.1541877 64.453125,45.1250903 C64.4029018,45.1463538 64.421875,45.1922383 64.421875,45.2269314 C64.4207589,46.0237545 64.4207589,46.8205776 64.421875,47.6174007 C64.421875,47.7237184 64.4252232,47.8300361 64.4486607,47.9352347 C64.4988839,48.1545848 64.6037946,48.2519495 64.828125,48.2698556 C64.9107143,48.2765704 64.9944196,48.2709747 65.0747768,48.2709747 C65.1261161,48.3537906 65.1060268,48.4231769 65.1026786,48.5059928 L63.4341518,48.5059928 C63.3973214,48.4388448 63.4095982,48.3694585 63.4229911,48.3000722 C63.4821429,48.2609025 63.5457589,48.2788087 63.6060268,48.273213 C63.7912946,48.256426 63.9207589,48.1635379 63.9854911,47.9889531 C64.0368304,47.8512996 64.0546875,47.7058123 64.0546875,47.5592058 C64.0546875,46.6784477 64.0569196,45.7965704 64.0546875,44.9158123 C64.0535714,44.5800722 63.8560268,44.377509 63.5178571,44.351769 C63.4910714,44.3495307 63.4642857,44.3472924 63.4308036,44.343935 C63.4029018,44.2745487 63.4107143,44.2085199 63.4196429,44.1413718 C63.4799107,44.0966065 63.5491071,44.1145126 63.6138393,44.1167509 C63.9330357,44.1290614 64.2522321,44.1368953 64.5703125,44.1167509 C64.6819196,44.1100361 64.7555804,44.1492058 64.8292411,44.2320217 C65.640625,45.1530686 66.4542411,46.0718773 67.2689732,46.9906859 L67.4229911,47.1619134 C67.4743304,47.1249819 67.4575893,47.0824549 67.4575893,47.0466426 C67.4587054,46.3393502 67.4587054,45.6320578 67.4575893,44.9258845 C67.4575893,44.8699278 67.4553571,44.812852 67.4464286,44.7580144 C67.40625,44.5140433 67.2488839,44.3741516 67.0011161,44.3551264 C66.9352679,44.3495307 66.8671875,44.3640794 66.7935268,44.3338628 C66.7734375,44.2734296 66.7790179,44.2085199 66.7879464,44.1447292 C66.8571429,44.1245848 68.3649554,44.11787 68.4575893,44.1357762 C68.4821429,44.1637545 68.4754464,44.1984477 68.4765625,44.2320217 C68.4765625,44.2655957 68.4810268,44.2991697 68.4486607,44.3428159 C68.3973214,44.3618412 68.3292411,44.3540072 68.2645089,44.3562455 C68.0725446,44.3629603 67.9508929,44.4625632 67.8917411,44.6405054 C67.8392857,44.796065 67.8236607,44.9594585 67.8236607,45.1217329 C67.8214286,46.1099278 67.8214286,47.0970036 67.8236607,48.0851986 C67.8247768,48.2698556 67.8426339,48.4545126 67.8526786,48.6391697 L67.6506696,48.6391697 L67.6506696,48.6391697 Z M47.3292411,48.6391697 C47.2455357,48.6100722 47.1964286,48.5406859 47.140625,48.4780144 C46.1841518,47.4081227 45.2276786,46.338231 44.2700893,45.2694585 C44.2254464,45.2190975 44.1796875,45.1698556 44.1361607,45.1217329 C44.0770089,45.1429964 44.0959821,45.19 44.0959821,45.2246931 C44.0948661,46.0215162 44.0948661,46.8183394 44.0959821,47.6151625 C44.0959821,47.7270758 44.0993304,47.8389892 44.1272321,47.9497834 C44.1785714,48.1534657 44.2779018,48.2463538 44.484375,48.2687365 C44.5725446,48.2788087 44.6618304,48.2788087 44.7566964,48.2832852 C44.7935268,48.3549097 44.78125,48.424296 44.7700893,48.5059928 L43.1049107,48.5059928 C43.0703125,48.4366065 43.0736607,48.3683394 43.0982143,48.3000722 C43.1584821,48.2642599 43.2220982,48.2788087 43.2823661,48.2743321 C43.4765625,48.2575451 43.6049107,48.1545848 43.6662946,47.9721661 C43.71875,47.8166065 43.7321429,47.6543321 43.7321429,47.4909386 L43.7321429,44.9818412 C43.7321429,44.5722383 43.5602679,44.3842238 43.15625,44.351769 C43.140625,44.3506498 43.125,44.343935 43.1060268,44.3394585 C43.0691964,44.2756679 43.0814732,44.209639 43.0915179,44.1469675 C43.1283482,44.1022022 43.1763393,44.1156318 43.21875,44.1167509 C43.5714286,44.1268231 43.9241071,44.1402527 44.2756696,44.1167509 C44.3805804,44.1100361 44.4386161,44.1615162 44.5011161,44.2320217 C45.3292411,45.1687365 46.1584821,46.1043321 46.9866071,47.0399278 C47.0234375,47.0813357 47.0613839,47.1216245 47.0982143,47.1619134 C47.1529018,47.1350542 47.1339286,47.0902888 47.1339286,47.0555957 C47.1350446,46.3538989 47.1350446,45.6522022 47.1350446,44.9505054 C47.1350446,44.9057401 47.1328125,44.8609747 47.1294643,44.8162094 C47.1026786,44.5274729 46.9386161,44.368556 46.6517857,44.3551264 C46.5959821,44.3528881 46.5412946,44.3506498 46.4877232,44.3472924 C46.4575893,44.2476895 46.4575893,44.2476895 46.4765625,44.1133935 C47.0234375,44.1290614 47.5736607,44.1368953 48.1283482,44.1133935 C48.1506696,44.1962094 48.1517857,44.26 48.1339286,44.3282671 C48.0736607,44.3707942 48.0033482,44.3528881 47.9386161,44.3562455 C47.7466518,44.3640794 47.625,44.4625632 47.5658482,44.6405054 C47.5189732,44.779278 47.5,44.9247653 47.5,45.0713718 C47.4988839,46.1043321 47.4977679,47.1372924 47.5011161,48.1691336 C47.5011161,48.3258123 47.5200893,48.482491 47.53125,48.6391697 L47.3292411,48.6391697 L47.3292411,48.6391697 Z M22.9441964,44.125704 C23.015625,44.0988448 23.0881696,44.1156318 23.1607143,44.11787 C23.6863839,44.134657 24.2120536,44.1312996 24.7388393,44.11787 C24.7935268,44.1167509 24.8504464,44.1033213 24.9118304,44.134657 C24.9386161,44.1939711 24.9196429,44.26 24.9241071,44.3237906 C24.8526786,44.3741516 24.7767857,44.351769 24.7075893,44.3562455 C24.4732143,44.3741516 24.3816964,44.4603249 24.3816964,44.6908664 C24.3794643,45.7741877 24.3794643,46.8563899 24.3816964,47.9397112 C24.3816964,48.1713718 24.4720982,48.2586643 24.7075893,48.273213 C24.7734375,48.2776895 24.8392857,48.2810469 24.9095982,48.2855235 C24.9341518,48.3582671 24.9274554,48.4231769 24.9196429,48.4836101 C24.8805804,48.5272563 24.8325893,48.5194224 24.7901786,48.5171841 C24.2142857,48.4948014 23.6383929,48.4948014 23.0613839,48.5171841 C23.0234375,48.5183032 22.984375,48.508231 22.9453125,48.5037545 L22.9453125,48.2676173 C23.0011161,48.2698556 23.0558036,48.2765704 23.1116071,48.2754513 C23.4475446,48.2664982 23.5189732,48.1926354 23.5189732,47.8512996 L23.5189732,44.779278 C23.5189732,44.7345126 23.5200893,44.6897473 23.5167411,44.6449819 C23.5033482,44.4703971 23.4185268,44.3786282 23.2455357,44.3618412 C23.1462054,44.351769 23.0457589,44.343935 22.9453125,44.3618412 C22.9441964,44.2823827 22.9441964,44.2040433 22.9441964,44.125704 L22.9441964,44.125704 Z M77.0558036,44.8329964 C77.0022321,44.8710469 77.0055804,44.9393141 76.9720982,44.9907942 C76.8180804,45.2168592 76.5223214,45.3254152 76.2477679,45.2493141 C75.9654018,45.1709747 75.7845982,44.9393141 75.7779018,44.6483394 C75.7712054,44.3428159 75.9252232,44.0999639 76.1886161,44.0014801 C76.4486607,43.9041155 76.7433036,43.9790975 76.9229911,44.1805415 C76.9888393,44.2544043 77.0089286,44.3484116 77.0569196,44.4289892 C77.0558036,44.5632852 77.0558036,44.6975812 77.0558036,44.8329964 Z M76.4241071,45.1474729 C76.7087054,45.1474729 76.9430804,44.9113357 76.9453125,44.6214801 C76.9486607,44.3316245 76.7165179,44.0887726 76.4341518,44.0854152 C76.1395089,44.0820578 75.9051339,44.3193141 75.906246,44.6192419 C75.9073661,44.9124549 76.1383929,45.1474729 76.4241071,45.1474729 L76.4241071,45.1474729 Z M23.0200893,41.6132491 C23.0066964,41.5270758 23.0078125,41.4409025 23.0212054,41.3412996 C23.1339286,41.3267509 23.2433036,41.311083 23.3526786,41.2976534 C23.8348214,41.2383394 24.0223214,41.042491 24.0546875,40.5590253 C24.0591518,40.4862816 24.0613839,40.4135379 24.0613839,40.3407942 L24.0613839,34.9544043 C24.0613839,34.8033213 24.0591518,34.6522383 24.0267857,34.5022744 C23.9508929,34.1419134 23.7834821,33.9818773 23.4174107,33.9359928 C23.2901786,33.9203249 23.1618304,33.9192058 23.0245536,33.9102527 C23,33.8218412 23.0100446,33.7345487 23.0167411,33.6427798 C23.0870536,33.6047292 23.1595982,33.6237545 23.2299107,33.6271119 C23.8727679,33.6573285 24.5167411,33.6461372 25.1595982,33.6338267 C25.7633929,33.6226354 26.3683036,33.5901805 26.9709821,33.6539711 C28.1283482,33.7759567 29.1517857,34.1933935 29.9386161,35.0819856 C30.6785714,35.9179783 31.0200893,36.9084116 30.8861607,38.0174729 C30.6886161,39.6525271 29.8069196,40.7727798 28.2433036,41.3245126 C27.6305804,41.5405054 26.9933036,41.6199639 26.3470982,41.628917 C25.5412946,41.6401083 24.7354911,41.5931047 23.9296875,41.61213 C23.6830357,41.6177256 23.4375,41.6244404 23.1908482,41.6277978 C23.1383929,41.6311552 23.0814732,41.6423466 23.0200893,41.6132491 L23.0200893,41.6132491 Z M25.2053571,34.046787 C25.171875,34.1161733 25.1863839,34.1844404 25.1863839,34.2504693 C25.1852679,36.2313357 25.1852679,38.2133213 25.1852679,40.1941877 C25.1852679,40.2557401 25.1841518,40.3172924 25.1875,40.3788448 C25.2109375,40.8712635 25.4631696,41.1521661 25.9486607,41.2338628 C26.2723214,41.2875812 26.5959821,41.2730325 26.9185268,41.2327437 C28.0200893,41.092852 28.8426339,40.5467148 29.2890625,39.5159928 C29.7689732,38.4091697 29.8024554,37.2687726 29.3783482,36.1384477 C28.9910714,35.1032491 28.2410714,34.4384838 27.1796875,34.1351986 C26.640625,33.9807581 26.0881696,33.9606137 25.5323661,34.0109747 C25.4229911,34.0199278 25.3091518,34.0031408 25.2053571,34.046787 L25.2053571,34.046787 Z M70.8526786,33.6674007 C70.8392857,33.5980144 70.8359375,33.5487726 70.8504464,33.4995307 C70.8816964,33.4614801 70.9285714,33.4558845 70.9698661,33.4413357 C71.3705357,33.2980866 71.7645089,33.1402888 72.1339286,32.9254152 C72.1484375,32.9164621 72.1629464,32.9086282 72.1785714,32.9019134 C72.2991071,32.8459567 72.3448661,32.8705776 72.3549107,32.9981588 C72.3582589,33.0485199 72.3560268,33.0988809 72.3560268,33.1492419 L72.3560268,37.1758845 C72.4296875,37.1736462 72.4598214,37.13 72.4966518,37.1009025 C72.7198661,36.920722 72.9542411,36.7606859 73.2064732,36.6230325 C74.109375,36.1272563 75.140625,36.4629964 75.6785714,37.1904332 C76.0245536,37.6571119 76.1886161,38.1842238 76.1875057,38.7628159 C76.1863839,39.7431769 75.8325893,40.5702166 75.0848214,41.210361 C74.5122768,41.7005415 73.8359375,41.8616968 73.0948661,41.7855957 C72.7120536,41.746426 72.3504464,41.6345126 72.0078125,41.4621661 C71.9107143,41.4129242 71.8359375,41.4118051 71.7511161,41.4890253 C71.6819196,41.5528159 71.6082589,41.6143682 71.5200893,41.6580144 C71.4430804,41.6244404 71.3683036,41.5897473 71.2924107,41.5326715 C71.3125,41.369278 71.3325893,41.2025271 71.3526786,41.0368953 C71.4296875,40.4124188 71.4497768,39.7845848 71.4475446,39.1556318 C71.4441964,37.6515162 71.4464286,36.1474007 71.4464286,34.6421661 C71.4464286,34.4854874 71.4441964,34.3288087 71.4207589,34.17213 C71.3872768,33.9415884 71.2689732,33.7916245 71.0457589,33.7255957 C70.9832589,33.7099278 70.9196429,33.6886643 70.8526786,33.6674007 L70.8526786,33.6674007 Z M75.2801339,39.2988809 C75.2767857,38.6867148 75.0825893,38.1383394 74.6863839,37.6649458 C74.4821429,37.4209747 74.2377232,37.2284838 73.9408482,37.1087365 C73.5703125,36.9598917 73.2098214,36.9766787 72.8616071,37.1792419 C72.7165179,37.264296 72.5848214,37.3694946 72.4508929,37.4702166 C72.375,37.5284116 72.3537946,37.5955596 72.3549107,37.6862094 C72.3571429,38.5501805 72.3515625,39.4130325 72.3582589,40.2770036 C72.3638393,41.0659928 73.0625,41.6311552 73.8348214,41.4834296 C74.3102679,41.3927798 74.6595982,41.1253069 74.90625,40.7179422 C75.1662946,40.2837184 75.2689732,39.8069675 75.2801339,39.2988809 L75.2801339,39.2988809 Z M62.09375,39.4701083 C62.1729911,39.4734657 62.2522321,39.4902527 62.3325893,39.5372563 C62.2745536,39.9144043 62.2154018,40.2904332 62.1573661,40.6664621 C62.1372768,40.799639 62.1149554,40.9316968 62.0970982,41.0659928 C62.0848214,41.1622383 62.0412946,41.2249097 61.9486607,41.2674368 C61.6584821,41.402852 61.3549107,41.5002166 61.0457589,41.578556 C60.46875,41.7262816 59.8861607,41.8270036 59.2879464,41.7990253 C58.3560268,41.7553791 57.4888393,41.5158845 56.734375,40.9428881 C55.9598214,40.3542238 55.5,39.5629964 55.2957589,38.6206859 C55.1417411,37.9111552 55.1127232,37.1960289 55.3091518,36.4876173 C55.6037946,35.428917 56.2578125,34.6444043 57.1897321,34.0881949 C57.9854911,33.6125632 58.8526786,33.4077617 59.7756696,33.4558845 C60.3091518,33.4838628 60.8270089,33.6069675 61.3348214,33.7658845 C61.6227679,33.8554152 61.9073661,33.9550181 62.2087054,34.0546209 C62.2466518,34.5985199 62.2834821,35.1390614 62.3214286,35.6840794 C62.2209821,35.7098195 62.1383929,35.7019856 62.0591518,35.6941516 C62.0122768,35.6270036 62.0145089,35.5520217 61.9966518,35.4815162 C61.7901786,34.6388087 61.2723214,34.1083394 60.4274554,33.9091336 C59.6361607,33.7233574 58.8694196,33.7983394 58.1395089,34.1609386 C57.4263393,34.515704 56.9107143,35.0696751 56.6462054,35.8194946 C56.1729911,37.1590975 56.2511161,38.470722 56.96875,39.7118412 C57.4162946,40.4862816 58.0658482,41.0380144 58.9296875,41.3077256 C59.4899554,41.4823105 60.0558036,41.5024549 60.6082589,41.2842238 C61.375,40.9820578 61.8258929,40.4001083 62.0379464,39.6155957 C62.0524554,39.5674729 62.0502232,39.5148736 62.09375,39.4701083 L62.09375,39.4701083 Z M36.5390625,41.3536101 L36.5390625,41.6345126 C35.7287946,41.6166065 34.9252232,41.5942238 34.1183036,41.63787 C34.0859375,41.5360289 34.0970982,41.4487365 34.1049107,41.3580866 C34.1785714,41.3155596 34.2589286,41.3424188 34.3348214,41.335704 C34.3683036,41.3323466 34.4017857,41.335704 34.4352679,41.3345848 C34.7533482,41.3289892 34.8482143,41.2394585 34.8504464,40.9227437 C34.8537946,40.1594946 34.8515625,39.3962455 34.8515625,38.6329964 C34.8515625,38.3744765 34.8459821,38.1170758 34.8504464,37.858556 C34.8549107,37.5922022 34.7332589,37.4097834 34.4988839,37.2967509 C34.4040179,37.2508664 34.3069196,37.2061011 34.2075893,37.1602166 C34.1886161,37.0874729 34.1897321,37.0169675 34.2087054,36.937509 C34.7165179,36.7707581 35.2243304,36.6006498 35.7366071,36.375704 C35.8035714,36.6655596 35.7455357,36.9397473 35.7779018,37.2072202 C35.8426339,37.2228881 35.875,37.1747653 35.9129464,37.1479061 C36.1238839,37.0001805 36.3359375,36.853574 36.5602679,36.7271119 C36.8861607,36.543574 37.2321429,36.4227076 37.6071429,36.392491 C37.8225446,36.375704 38.0323661,36.3958484 38.2366071,36.4629964 C38.546875,36.5648375 38.7611607,36.7763538 38.8950893,37.0718051 C39.0122768,37.331444 39.0602679,37.60787 39.0625,37.8898917 C39.0669643,38.5636101 39.0658482,39.2373285 39.0669643,39.9110469 C39.0669643,40.2535018 39.0658482,40.5959567 39.0680804,40.9384116 C39.0703125,41.2170758 39.1729911,41.3222744 39.4542411,41.3334657 C39.5758929,41.3379422 39.6986607,41.3345848 39.828125,41.3345848 C39.8526786,41.4341877 39.8448661,41.5225993 39.8359375,41.6345126 C39.03125,41.6199639 38.2276786,41.5931047 37.4241071,41.6401083 C37.3805804,41.5405054 37.4006696,41.4520939 37.4017857,41.3603249 C37.4921875,41.3144404 37.5881696,41.3379422 37.6808036,41.3368231 C38.0691964,41.3312274 38.1529018,41.2495307 38.1540179,40.8589531 C38.1551339,39.9323105 38.1551339,39.006787 38.1529018,38.0801444 C38.1529018,37.9570397 38.1462054,37.8316968 38.1238839,37.7119495 C38.0491071,37.3168953 37.7377232,37.0594946 37.3013393,37.0203249 C37.0926339,37.0012996 36.8883929,37.0192058 36.6897321,37.0908303 C36.3984375,37.1960289 36.1272321,37.339278 35.8638393,37.4993141 C35.7924107,37.5429603 35.7700893,37.5966787 35.7700893,37.6783755 C35.7723214,38.7616968 35.7712054,39.8450181 35.7723214,40.9283394 C35.7723214,40.9619134 35.7734375,40.9954874 35.7767857,41.0290614 C35.7946429,41.1969314 35.8683036,41.2808664 36.0323661,41.318917 C36.1428571,41.344657 36.2555804,41.3312274 36.3671875,41.335704 C36.4174107,41.3368231 36.4732143,41.3233935 36.5390625,41.3536101 L36.5390625,41.3536101 Z M70.8526786,41.2215523 C70.8705357,41.3054874 70.8694196,41.3703971 70.8515625,41.4464982 C70.2912946,41.5237184 69.7455357,41.6591336 69.1852679,41.8079783 C69.1395089,41.6412274 69.1674107,41.4845487 69.1618304,41.3323466 C69.1573661,41.1835018 69.1607143,41.034657 69.1607143,40.8723827 C69.0747768,40.8902888 69.0357143,40.9406498 68.9899554,40.9775812 C68.7622768,41.1588809 68.5323661,41.3379422 68.2790179,41.4845487 C67.9073661,41.7005415 67.5111607,41.813574 67.0792411,41.8012635 C66.4854911,41.7844765 66.0234375,41.3972563 65.9084821,40.8119495 C65.8805804,40.6687004 65.8716518,40.523213 65.8716518,40.3766065 C65.8727679,39.4566787 65.8716518,38.5356318 65.8716518,37.615704 C65.8716518,37.5373646 65.8727679,37.4579061 65.8683036,37.3795668 C65.8549107,37.1535018 65.7421875,36.9990614 65.5279018,36.9274368 C65.4229911,36.8927437 65.3125,36.8725993 65.2075893,36.8468592 C65.1841518,36.7808303 65.1841518,36.7215162 65.2087054,36.6498917 C65.3091518,36.6409386 65.4140625,36.6286282 65.5189732,36.6219134 C65.8761161,36.6006498 66.234375,36.5816245 66.5915179,36.5614801 C66.7444196,36.5525271 66.7745536,36.5805054 66.7823661,36.7416606 C66.7868304,36.836787 66.7868304,36.9319134 66.7868304,37.0281588 C66.7868304,37.942491 66.7868304,38.8579422 66.7879464,39.7722744 C66.7879464,39.9916245 66.7957589,40.2098556 66.84375,40.4247292 C67,41.1387365 67.6004464,41.268556 68.0513393,41.1443321 C68.3805804,41.0536823 68.6629464,40.8712635 68.9341518,40.6709386 C69.1707589,40.4963538 69.1696429,40.4952347 69.1696429,40.2064982 C69.1696429,39.3145487 69.1640625,38.4214801 69.1741071,37.5295307 C69.1763393,37.3325632 69.0948661,37.2273646 68.9319196,37.1546209 C68.7678571,37.0818773 68.5959821,37.0337545 68.4241071,36.9833935 C68.3604911,36.9643682 68.296875,36.9464621 68.2399554,36.9296751 C68.1964286,36.8625271 68.2154018,36.8020939 68.21875,36.736065 C68.3337054,36.694657 68.453125,36.7036101 68.5669643,36.6924188 C69.0122768,36.6465343 69.4575893,36.6084838 69.9029018,36.5681949 C70.0569196,36.5547653 70.0758929,36.5715523 70.0859375,36.7271119 C70.0904018,36.7942599 70.0881696,36.8614079 70.0881696,36.928556 L70.0881696,40.8679061 C70.0881696,41.1879783 70.1216518,41.2181949 70.4464286,41.2204332 C70.578125,41.2237906 70.7109375,41.1991697 70.8526786,41.2215523 L70.8526786,41.2215523 Z M40.7075893,38.4863899 C40.6674107,39.2474007 40.7511161,39.970361 41.2712054,40.573574 C41.5334821,40.8779783 41.8604911,41.0693502 42.265625,41.109639 C42.5747768,41.1409747 42.8649554,41.0715884 43.1439732,40.941769 C43.3738839,40.8343321 43.5758929,40.6843682 43.7645089,40.5142599 C43.8180804,40.4661372 43.8716518,40.4157762 43.9296875,40.3620578 C44,40.3922744 44.0412946,40.4493502 44.0926339,40.5153791 C43.6194196,41.126426 43.0970982,41.6669675 42.2857143,41.7788809 C41.421875,41.8986282 40.6272321,41.587509 40.1729911,40.7671841 C39.8348214,40.1561372 39.7511161,39.4969675 39.8225446,38.8131769 C39.8694196,38.3688809 39.9832589,37.9413718 40.2154018,37.5552708 C40.6171875,36.8837906 41.2008929,36.4697112 41.984375,36.3958484 C42.6953125,36.3287004 43.5870536,36.6756318 43.9140625,37.5105054 C44.0133929,37.7656679 44.0502232,38.0297834 44.0379464,38.3017329 C44.0334821,38.4058123 43.9877232,38.4516968 43.8839286,38.4628881 C43.8392857,38.4673646 43.7946429,38.4640072 43.75,38.4640072 C42.8046875,38.4640072 41.859375,38.4640072 40.9129464,38.4651264 C40.8515625,38.4662455 40.7901786,38.4550542 40.7075893,38.4863899 L40.7075893,38.4863899 Z M40.7522321,38.0790253 C40.8013393,38.1081227 40.8470982,38.1002888 40.8917411,38.1002888 L42.703125,38.1002888 C42.7421875,38.1002888 42.78125,38.1002888 42.8203125,38.0946931 C42.9765625,38.0711913 43.0457589,37.9973285 43.0602679,37.8406498 C43.0691964,37.7388087 43.0502232,37.6380866 43.0290179,37.540722 C42.9453125,37.1602166 42.7310268,36.8849097 42.34375,36.7931408 C41.9051339,36.6879422 41.5111607,36.7942599 41.1919643,37.1232852 C40.9319196,37.3885199 40.8113839,37.7209025 40.7522321,38.0790253 L40.7522321,38.0790253 Z M38.6651786,44.3472924 C38.6328125,44.2700722 38.6383929,44.2051625 38.6517857,44.1469675 C38.6774554,44.1133935 38.7064732,44.1133935 38.734375,44.1145126 C39.4174107,44.142491 40.0993304,44.11787 40.7823661,44.1156318 C40.984375,44.1145126 41.1841518,44.142491 41.3783482,44.1984477 C42.1529018,44.4211552 42.4140625,45.3645848 41.8683036,45.9644404 C41.75,46.0942599 41.6071429,46.1916245 41.453125,46.2744404 C41.4095982,46.2979422 41.3571429,46.3068953 41.3158482,46.3583755 C41.3292411,46.413213 41.3716518,46.4590975 41.4040179,46.5083394 C41.6919643,46.9425632 41.9854911,47.3745487 42.2689732,47.81213 C42.4296875,48.0605776 42.6037946,48.2810469 42.9285714,48.2743321 C42.9631696,48.3560289 42.9553571,48.4209386 42.9453125,48.4836101 C42.8950893,48.5317329 42.8359375,48.5183032 42.7823661,48.5138267 C42.4743304,48.4925632 42.1674107,48.4925632 41.859375,48.5115884 C41.7544643,48.5183032 41.6863839,48.4858484 41.6216518,48.3974368 C41.2243304,47.8535379 40.8683036,47.2827798 40.5345982,46.6985921 C40.4151786,46.4893141 40.4151786,46.4893141 40.1707589,46.4960289 C40.1372768,46.497148 40.1037946,46.4926715 40.0691964,46.5150542 C40.0345982,46.547509 40.0479911,46.5956318 40.0479911,46.6381588 C40.046875,47.0085921 40.0457589,47.3790253 40.0479911,47.7494585 C40.0479911,47.8277978 40.0569196,47.9061372 40.0691964,47.9833574 C40.1004464,48.1780866 40.1875,48.2575451 40.3805804,48.2687365 C40.46875,48.273213 40.5580357,48.2698556 40.6462054,48.2698556 C40.6863839,48.3493141 40.671875,48.415343 40.6685268,48.4802527 C40.6104911,48.5373285 40.5390625,48.516065 40.4754464,48.5149458 C40.1116071,48.5115884 39.7477679,48.5026354 39.3839286,48.5003971 C39.2053571,48.499278 39.0256696,48.5115884 38.8470982,48.5149458 C38.7868304,48.516065 38.7243304,48.5250181 38.6629464,48.499278 C38.6328125,48.4343682 38.640625,48.3694585 38.6551339,48.3011913 C38.7154018,48.2575451 38.7857143,48.2776895 38.8504464,48.2720939 C39.0959821,48.2508303 39.2020089,48.1411552 39.2020089,47.8949458 C39.203125,46.8731769 39.2020089,45.8514079 39.2020089,44.8307581 C39.2020089,44.7524188 39.1975446,44.6740794 39.1763393,44.5979783 C39.1328125,44.4390614 39.0558036,44.3707942 38.8950893,44.3573646 C38.8214286,44.3528881 38.7488839,44.351769 38.6651786,44.3472924 Z M40.0524554,46.2140072 C40.2823661,46.2173646 40.4944196,46.2307942 40.703125,46.1793141 C40.9720982,46.1132852 41.1428571,45.9476534 41.2131696,45.6779422 C41.2555804,45.5134296 41.2667411,45.3466787 41.2544643,45.1776895 C41.2120536,44.5834296 40.6194196,44.2141155 40.0513393,44.4345848 C40.0524554,45.0198917 40.0524554,45.6063177 40.0524554,46.2140072 Z M62.7533482,41.6199639 C62.7388393,41.5237184 62.7410714,41.436426 62.7533482,41.3345848 C62.8571429,41.3345848 62.9508929,41.335704 63.0446429,41.3345848 C63.1116071,41.3334657 63.1796875,41.3334657 63.2455357,41.3211552 C63.4051339,41.2909386 63.4776786,41.2114801 63.4955357,41.0492058 C63.5044643,40.9708664 63.5055804,40.8925271 63.5055804,40.8141877 C63.5055804,38.771769 63.5066964,36.7304693 63.5055804,34.6880505 C63.5055804,34.5425632 63.5011161,34.3959567 63.4899554,34.2504693 C63.4642857,33.9359928 63.3638393,33.811769 63.0680804,33.7166426 C63.015625,33.6998556 62.9642857,33.6819495 62.9084821,33.6629242 C62.9040179,33.6304693 62.8984375,33.602491 62.8973214,33.5756318 C62.8973214,33.5487726 62.9029018,33.5207942 62.9051339,33.4961733 C62.9854911,33.4413357 63.0747768,33.4256679 63.1584821,33.3943321 C63.5100446,33.2645126 63.8549107,33.1201444 64.1819196,32.9332491 C64.2154018,32.9142238 64.25,32.8940794 64.2868304,32.8806498 C64.3537946,32.8560289 64.4006696,32.8862455 64.4118304,32.9511552 C64.4229911,33.0171841 64.421875,33.0854513 64.421875,33.1525993 L64.421875,40.7929242 C64.421875,40.8600722 64.4207589,40.9272202 64.4241071,40.9943682 C64.4363839,41.2014079 64.5245536,41.2987726 64.7310268,41.3256318 C64.796875,41.3345848 64.8649554,41.3301083 64.9319196,41.3334657 C65.0089286,41.3379422 65.0881696,41.3233935 65.1707589,41.3468953 C65.2020089,41.4319495 65.1875,41.5192419 65.1819196,41.6054152 C65.1060268,41.6244404 62.9508929,41.6367509 62.7533482,41.6199639 L62.7533482,41.6199639 Z M48.5111607,40.0990614 C48.5792411,40.0800361 48.6283482,40.0487004 48.6852679,40.054296 C48.7332589,40.0833935 48.7287946,40.1315162 48.7399554,40.1740433 C48.8058036,40.4258484 48.8984375,40.665343 49.0535714,40.8757401 C49.3984375,41.3424188 49.8649554,41.5181227 50.4252232,41.4073285 C51.0301339,41.2875812 51.2790179,40.6116245 50.9162946,40.1080144 C50.8225446,39.9781949 50.6997768,39.8819495 50.5669643,39.7968953 C50.3872768,39.6816245 50.1930804,39.5943321 50.0011161,39.5048014 C49.7321429,39.3794585 49.4620536,39.2585921 49.21875,39.0851264 C48.9709821,38.9094224 48.7767857,38.6911913 48.6729911,38.3990975 C48.3917411,37.6123466 48.7823661,36.8043321 49.5859375,36.5155957 C50.0368304,36.3533213 50.4955357,36.3533213 50.9575893,36.4641155 C51.1975446,36.5211913 51.4296875,36.5984116 51.65625,36.7237545 C51.6863839,37.1053791 51.7243304,37.4870036 51.7332589,37.8798195 C51.6439732,37.8966065 51.5680804,37.8943682 51.4877232,37.8820578 C51.4575893,37.7712635 51.4319196,37.6627076 51.3973214,37.557509 C51.1785714,36.9072924 50.4977679,36.5838628 49.8526786,36.8188809 C49.3482143,37.0024188 49.1785714,37.565343 49.4944196,38.0029242 C49.5948661,38.1416968 49.7287946,38.2424188 49.8738839,38.3308303 C50.0747768,38.453935 50.2924107,38.5434657 50.5078125,38.6374729 C50.7232143,38.7314801 50.9408482,38.8210108 51.1450893,38.9385199 C51.2321429,38.9888809 51.3169643,39.0425993 51.4006696,39.0996751 C52.2020089,39.6480505 52.1495536,40.7515162 51.5122768,41.3166787 C51.2310268,41.5662455 50.8984375,41.7005415 50.5334821,41.7643321 C49.9107143,41.871769 49.3214286,41.7598556 48.7578125,41.4834296 C48.6852679,41.4476173 48.6261161,41.4106859 48.6183036,41.3144404 C48.5870536,40.9350542 48.5491071,40.5556679 48.5145089,40.1751625 C48.5100446,40.1538989 48.5111607,40.1315162 48.5111607,40.0990614 L48.5111607,40.0990614 Z M44.5859375,37.2128159 C44.5680804,37.1579783 44.5680804,37.1031408 44.5881696,37.0371119 C44.9073661,36.8938628 45.2310268,36.7427798 45.5479911,36.5793863 C45.6517857,36.5256679 45.7555804,36.4697112 45.8638393,36.4227076 C46.0100446,36.358917 46.0591518,36.3880144 46.0613839,36.5502888 C46.0669643,36.8255957 46.0625,37.0997834 46.0647321,37.3750903 C46.0647321,37.4288087 46.046875,37.4858845 46.0870536,37.5384838 C46.1450893,37.5116245 46.1629464,37.456787 46.1919643,37.4120217 C46.3549107,37.1691697 46.5279018,36.9352708 46.7466518,36.7394224 C46.9430804,36.5648375 47.1607143,36.4372563 47.4263393,36.3969675 C47.5825893,36.3734657 47.7276786,36.3969675 47.8660714,36.4641155 C48.203125,36.627509 48.3080357,37.0404693 48.0959821,37.3504693 C47.9375,37.5832491 47.640625,37.6503971 47.3995536,37.507148 C47.3470982,37.4758123 47.2991071,37.4366426 47.2466518,37.4030686 C47.0792411,37.2956318 46.9040179,37.2799639 46.7176339,37.3504693 C46.3247768,37.5004332 46.0803571,37.8316968 46.078125,38.2502527 C46.0725446,39.1477978 46.0747768,40.045343 46.0770089,40.9428881 C46.078125,41.2249097 46.1808036,41.3267509 46.4642857,41.3312274 C46.7209821,41.335704 46.9776786,41.3323466 47.2410714,41.3323466 C47.2767857,41.4319495 47.2622768,41.5225993 47.2533482,41.6333935 C46.2723214,41.6098917 45.3013393,41.5931047 44.3247768,41.6356318 C44.2901786,41.5360289 44.3046875,41.4487365 44.3091518,41.3569675 C44.3816964,41.311083 44.4620536,41.3379422 44.5379464,41.3334657 C44.6439732,41.32787 44.7511161,41.335704 44.8560268,41.3245126 C45.0569196,41.3032491 45.1417411,41.2092419 45.1529018,41.0066787 C45.15625,40.9563177 45.1551339,40.9059567 45.1551339,40.8555957 C45.1551339,39.8517329 45.1484375,38.8467509 45.1595982,37.8428881 C45.1629464,37.5687004 45.0502232,37.4109025 44.8102679,37.314657 C44.7377232,37.2855596 44.6551339,37.2631769 44.5859375,37.2128159 L44.5859375,37.2128159 Z M38.0066964,45.1161372 C37.9397321,45.1340433 37.8761161,45.1497112 37.8080357,45.1676173 C37.7779018,45.0926354 37.7723214,45.0198917 37.7622768,44.9482671 C37.7176339,44.6438628 37.5770089,44.4983755 37.2767857,44.4580866 C36.9319196,44.411083 36.5859375,44.4468953 36.2455357,44.435704 C36.2087054,44.5733574 36.1986607,45.7540433 36.2276786,45.9912996 C36.2522321,46.0215162 36.2879464,46.0148014 36.3203125,46.0159206 C36.5334821,46.0170397 36.7455357,46.019278 36.9587054,46.0159206 C37.1941964,46.011444 37.3046875,45.9207942 37.3616071,45.6913718 C37.3772321,45.6264621 37.3895089,45.5604332 37.4029018,45.4955235 C37.46875,45.4585921 37.5357143,45.4764982 37.6238839,45.4798556 C37.6238839,45.9700361 37.6071429,46.4602166 37.6305804,46.941444 C37.5558036,46.9895668 37.4910714,46.9974007 37.4151786,46.9895668 C37.3694196,46.9112274 37.3805804,46.8183394 37.3638393,46.7332852 C37.3158482,46.4915523 37.2299107,46.4009025 36.9832589,46.3897112 C36.7377232,46.379639 36.4910714,46.3874729 36.2544643,46.3874729 C36.2075893,46.4210469 36.2154018,46.463574 36.2154018,46.5016245 C36.2142857,46.9336101 36.2131696,47.3655957 36.2154018,47.7987004 C36.2165179,48.0281227 36.3125,48.1400361 36.5401786,48.172491 C36.875,48.2194946 37.2109375,48.2083032 37.5435268,48.1601805 C37.8091518,48.12213 37.9933036,47.9721661 38.09375,47.7225993 C38.1305804,47.6297112 38.1640625,47.535704 38.203125,47.4327437 C38.2723214,47.4506498 38.3348214,47.4663177 38.4107143,47.4864621 C38.3370536,47.8322744 38.2645089,48.1691336 38.1919643,48.5115884 L34.8426339,48.5115884 C34.8002232,48.4399639 34.8113839,48.3705776 34.8314732,48.2944765 C34.9107143,48.2698556 34.9888393,48.2821661 35.0658482,48.2754513 C35.2589286,48.2586643 35.3470982,48.1747292 35.3671875,47.9811191 C35.3716518,47.9363538 35.3705357,47.8915884 35.3705357,47.8468231 C35.3705357,46.8306498 35.3671875,45.8144765 35.3727679,44.7994224 C35.375,44.4491336 35.2611607,44.3540072 34.9553571,44.3573646 C34.9174107,44.3573646 34.8772321,44.3651986 34.8359375,44.3383394 C34.8046875,44.2790253 34.8147321,44.2141155 34.8258929,44.1503249 C34.8939732,44.1301805 37.8582589,44.1167509 38.0078125,44.1380144 C38.0066964,44.452491 38.0066964,44.7748014 38.0066964,45.1161372 L38.0066964,45.1161372 Z M52.4564732,48.2967148 C52.4765625,48.3627437 52.4665179,48.4231769 52.4642857,48.5071119 C52.265625,48.5294946 52.0658482,48.4948014 51.8683036,48.499278 C51.6618304,48.5048736 51.4542411,48.5003971 51.2477679,48.5003971 L50.640625,48.5003971 C50.609375,48.4332491 50.6272321,48.3638628 50.6294643,48.2844043 C50.7176339,48.2776895 50.7946429,48.2765704 50.8705357,48.2653791 C51.0558036,48.2385199 51.1060268,48.1680144 51.0502232,47.9878339 C50.9475446,47.6565704 50.8337054,47.3286643 50.7276786,47.0052347 C50.5892857,46.9750181 49.6629464,46.966065 49.3560268,46.9906859 C49.3470982,47.0052347 49.3303571,47.0220217 49.3236607,47.0410469 C49.2276786,47.3454513 49.1361607,47.6509747 49.0357143,47.9542599 C48.9821429,48.1176534 49.0133929,48.2094224 49.2154018,48.2541877 C49.3169643,48.2765704 49.4241071,48.2754513 49.5290179,48.2844043 C49.5558036,48.3560289 49.5479911,48.4220578 49.5357143,48.5048736 C49.3772321,48.5283755 49.2165179,48.4936823 49.0580357,48.4981588 C48.8962054,48.5026354 48.7332589,48.5026354 48.5714286,48.4970397 C48.4107143,48.491444 48.25,48.5294946 48.0859375,48.5015162 C48.0580357,48.4310108 48.0758929,48.3649819 48.0725446,48.3112635 C48.0993304,48.273213 48.1272321,48.273213 48.1551339,48.2720939 C48.4040179,48.2620217 48.5591518,48.1243682 48.6428571,47.9005415 C48.7421875,47.6330686 48.8337054,47.3622383 48.9263393,47.0925271 C49.2254464,46.2240794 49.53125,45.35787 49.8180804,44.4849458 C49.8772321,44.3058845 49.9464286,44.1794224 50.1361607,44.1268231 C50.2254464,44.1022022 50.3069196,44.0451264 50.390625,44.000361 C50.5401786,43.9220217 50.5658482,43.9298556 50.6205357,44.0865343 C50.7555804,44.4670397 50.8895089,44.8475451 51.0223214,45.2280505 C51.3158482,46.0685199 51.609375,46.9101083 51.9040179,47.7505776 C51.9352679,47.8401083 51.9709821,47.9285199 52.0066964,48.0169314 C52.0714286,48.1792058 52.1841518,48.2709747 52.3638393,48.2709747 C52.3861607,48.2709747 52.4084821,48.2754513 52.4308036,48.2788087 C52.4363839,48.2832852 52.4408482,48.2877617 52.4564732,48.2967148 L52.4564732,48.2967148 Z M49.4799107,46.5687726 L50.5647321,46.5687726 C50.3872768,46.0215162 50.2154018,45.4888087 50.0435268,44.9572202 C50.03125,44.9572202 50.0200893,44.9572202 50.0078125,44.9561011 C49.8348214,45.4854513 49.6618304,46.0136823 49.4799107,46.5687726 L49.4799107,46.5687726 Z M72.7745536,48.2855235 C72.7979911,48.3627437 72.7946429,48.4276534 72.7756696,48.516065 C72.1752232,48.4948014 71.5736607,48.4948014 70.9754464,48.5183032 C70.9319196,48.4377256 70.9441964,48.3683394 70.9575893,48.2933574 C71.0368304,48.2653791 71.1160714,48.2799278 71.1919643,48.2676173 C71.3772321,48.2385199 71.4296875,48.1702527 71.375,47.9934296 C71.2712054,47.6565704 71.1551339,47.3241877 71.0435268,46.9884477 L69.6741071,46.9884477 C69.6160714,47.0992419 69.59375,47.2156318 69.5591518,47.3275451 C69.4899554,47.5468953 69.4185268,47.7651264 69.3560268,47.9855957 C69.3136161,48.1366787 69.3549107,48.1971119 69.5044643,48.2485921 C69.6171875,48.2866426 69.7377232,48.2597834 69.8526786,48.2911191 C69.8783482,48.3593863 69.8716518,48.4254152 69.8571429,48.5149458 C69.3761161,48.4981588 68.8939732,48.491444 68.40625,48.5183032 C68.3917411,48.4310108 68.3883929,48.3661011 68.4040179,48.3000722 C68.421875,48.2922383 68.4375,48.2799278 68.4520089,48.2799278 C68.7388393,48.273213 68.9006696,48.1087004 68.9888393,47.8524188 C69.1763393,47.3129964 69.3660714,46.773574 69.5502232,46.2330325 C69.7667411,45.5973646 70.0078125,44.9684116 70.1953125,44.3226715 C70.2131696,44.2622383 70.2399554,44.2253069 70.296875,44.2040433 C70.4486607,44.1469675 70.5926339,44.0719856 70.7354911,43.9947653 C70.8604911,43.9264982 70.8883929,43.9388087 70.9408482,44.0820578 C71.0145089,44.2823827 71.0837054,44.4827076 71.1540179,44.6841516 C71.5089286,45.6992058 71.8638393,46.7153791 72.21875,47.7304332 C72.2522321,47.8255596 72.2890625,47.9195668 72.3258929,48.013574 C72.3917411,48.1825632 72.5078125,48.2776895 72.6953125,48.2765704 C72.71875,48.2754513 72.7410714,48.2810469 72.7745536,48.2855235 L72.7745536,48.2855235 Z M70.8895089,46.5676534 C70.7120536,46.019278 70.5401786,45.4888087 70.3683036,44.9572202 L70.3337054,44.9572202 C70.1607143,45.4899278 69.9787946,46.0203971 69.8113839,46.5676534 L70.8895089,46.5676534 L70.8895089,46.5676534 Z M34.4743304,43.9287365 C34.5513393,43.9253791 34.6071429,43.9186643 34.6674107,43.9679061 C34.6238839,44.2980505 34.5758929,44.6360289 34.59375,44.9773646 C34.5267857,45.0333213 34.4542411,45.0523466 34.3794643,45.0668953 C34.328125,45.0042238 34.34375,44.9325993 34.3337054,44.8676895 C34.2924107,44.6002166 34.1651786,44.4793502 33.8984375,44.4748736 C33.6127232,44.4703971 33.328125,44.4737545 33.0424107,44.4737545 C33.0089286,44.4737545 32.9743304,44.4703971 32.9419643,44.4950181 C32.9095982,44.5297112 32.9229911,44.5767148 32.9229911,44.6192419 C32.921875,45.66787 32.9229911,46.7176173 32.9229911,47.7662455 C32.9229911,47.7942238 32.921875,47.8222022 32.9241071,47.8501805 C32.9486607,48.1624188 33.0535714,48.2620217 33.3660714,48.2754513 C33.4207589,48.2776895 33.4776786,48.2687365 33.5424107,48.2944765 C33.5691964,48.3526715 33.5569196,48.4187004 33.5535714,48.4813718 C33.5200893,48.5283755 33.4720982,48.5194224 33.4285714,48.5183032 C32.8024554,48.4948014 32.1763393,48.4970397 31.5491071,48.5183032 C31.5223214,48.5194224 31.4944196,48.5127076 31.4631696,48.5093502 C31.4274554,48.4388448 31.4386161,48.3694585 31.453125,48.2933574 C31.5479911,48.2664982 31.6428571,48.2799278 31.7366071,48.273213 C31.9453125,48.2597834 32.0256696,48.1881588 32.0546875,47.9788809 C32.0669643,47.8904693 32.0758929,47.7998195 32.0758929,47.7114079 C32.0770089,46.6907581 32.0770089,45.6689892 32.0758929,44.6483394 C32.0758929,44.5990975 32.0848214,44.5476173 32.0613839,44.5006137 C32.0223214,44.4670397 31.9765625,44.4748736 31.9330357,44.4748736 C31.6361607,44.4748736 31.3404018,44.4748736 31.0435268,44.4759928 C31.0044643,44.4759928 30.9654018,44.4793502 30.9263393,44.4838267 C30.6986607,44.5095668 30.6383929,44.5599278 30.5792411,44.7803971 C30.5580357,44.8609747 30.5401786,44.9426715 30.5200893,45.0254874 C30.4441964,45.0523466 30.375,45.0467509 30.2901786,45.031083 C30.3258929,44.6651264 30.4017857,44.3092419 30.4017857,43.95 C30.4654018,43.9153069 30.5212054,43.9343321 30.5881696,43.9287365 C30.625,44.0775812 30.7399554,44.1066787 30.8716518,44.1055596 C30.9330357,44.1055596 30.9944196,44.108917 31.0558036,44.108917 L34.0435268,44.108917 C34.1160714,44.108917 34.1886161,44.1044404 34.2611607,44.1022022 C34.3727679,44.0988448 34.4598214,44.0641516 34.4743304,43.9287365 L34.4743304,43.9287365 Z M52.1573661,45.0277256 C52.078125,45.0467509 52.0122768,45.04787 51.9308036,45.0254874 C51.9631696,44.6640072 52.0412946,44.3092419 52.0368304,43.9488809 C52.1004464,43.9153069 52.1551339,43.9276173 52.2254464,43.933213 C52.2633929,44.0820578 52.3861607,44.1066787 52.5223214,44.1066787 C52.5837054,44.1066787 52.6450893,44.1122744 52.7064732,44.1122744 L55.6785714,44.1122744 C55.7399554,44.1122744 55.8013393,44.108917 55.8627232,44.1055596 C55.9854911,44.0988448 56.1060268,44.0865343 56.1104911,43.9320939 C56.1808036,43.9197834 56.2299107,43.9264982 56.2991071,43.95 C56.2734375,44.2924549 56.203125,44.6326715 56.2321429,44.9740072 C56.1640625,45.038917 56.0848214,45.0411552 56.015625,45.0758484 C55.9754464,44.9818412 55.9776786,44.896787 55.9609375,44.8150903 C55.9162946,44.5990975 55.7979911,44.4838267 55.5825893,44.478231 C55.2633929,44.469278 54.9441964,44.4759928 54.6261161,44.4771119 C54.6104911,44.4771119 54.5948661,44.486065 54.578125,44.4916606 C54.5435268,44.536426 54.5558036,44.5890253 54.5558036,44.6382671 C54.5546875,45.6600361 54.5546875,46.6806859 54.5558036,47.7024549 C54.5558036,47.7919856 54.5658482,47.8815162 54.5803571,47.9699278 C54.6138393,48.1702527 54.7165179,48.2597834 54.921875,48.2720939 C55.0044643,48.2765704 55.0870536,48.273213 55.1595982,48.273213 C55.2075893,48.3582671 55.1841518,48.424296 55.1875,48.4869675 C55.1339286,48.5037545 53.1707589,48.5138267 53.0948661,48.499278 C53.0669643,48.4724188 53.0747768,48.4377256 53.0747768,48.4052708 C53.0747768,48.3716968 53.078125,48.3392419 53.0814732,48.3011913 C53.1729911,48.2586643 53.2700893,48.2799278 53.3627232,48.2743321 C53.5792411,48.2597834 53.6506696,48.2015884 53.6908482,47.9900722 C53.7008929,47.9352347 53.7087054,47.879278 53.7087054,47.8233213 C53.7098214,46.7455957 53.7098214,45.66787 53.7098214,44.5912635 C53.7098214,44.5632852 53.7064732,44.5353069 53.7042411,44.5140433 C53.6674107,44.4659206 53.6194196,44.4759928 53.5770089,44.4759928 C53.2745536,44.4759928 52.9720982,44.4759928 52.6707589,44.4771119 C52.6149554,44.4771119 52.5591518,44.4871841 52.5033482,44.4916606 C52.3560268,44.5039711 52.2700893,44.586787 52.2332589,44.7266787 C52.2075893,44.8229242 52.1841518,44.9214079 52.1573661,45.0277256 L52.1573661,45.0277256 Z M31.4955357,37.0415884 C31.484375,36.9733213 31.4799107,36.9229603 31.4977679,36.8714801 C31.5602679,36.8222383 31.640625,36.8132852 31.7131696,36.7897834 C32.0636161,36.6745126 32.4185268,36.5760289 32.7566964,36.4249458 C32.7924107,36.409278 32.8303571,36.3992058 32.8694196,36.3913718 C32.9363839,36.3779422 32.9799107,36.4081588 32.9866071,36.476426 C32.9944196,36.5491697 32.9966518,36.6219134 32.9966518,36.694657 C32.9966518,38.0633574 32.9966518,39.4320578 32.9977679,40.8007581 C32.9977679,40.8790975 32.9988839,40.958556 33.0089286,41.0357762 C33.0301339,41.2125993 33.1060268,41.2954152 33.2857143,41.3211552 C33.3962054,41.3368231 33.5089286,41.3312274 33.6205357,41.3345848 C33.6584821,41.335704 33.6975446,41.3345848 33.7254464,41.3345848 C33.7756696,41.3804693 33.7589286,41.4285921 33.7622768,41.4711191 C33.7645089,41.5158845 33.7633929,41.5606498 33.7633929,41.6031769 C33.7209821,41.6154874 31.3973214,41.6244404 31.3270089,41.6132491 C31.3147321,41.5281949 31.3136161,41.4420217 31.328125,41.3558484 C31.3872768,41.3222744 31.4441964,41.3379422 31.4977679,41.335704 C31.5926339,41.3323466 31.6886161,41.3379422 31.7823661,41.32787 C31.9810268,41.3054874 32.0691964,41.2092419 32.0825893,41.0100361 C32.0859375,40.9596751 32.0848214,40.9093141 32.0848214,40.8589531 L32.0848214,37.9301805 C32.0848214,37.9133935 32.0837054,37.8966065 32.0848214,37.8798195 C32.1127232,37.5261733 31.9709821,37.27213 31.6450893,37.1255235 C31.59375,37.1020217 31.546875,37.0706859 31.4955357,37.0415884 Z M76.28125,48.5071119 L72.9676339,48.5071119 C72.9542411,48.43213 72.9520089,48.3672202 72.96875,48.2978339 C73.0368304,48.2609025 73.1116071,48.2776895 73.1819196,48.2720939 C73.3962054,48.2553069 73.4910714,48.1601805 73.5055804,47.9430686 C73.5089286,47.8927076 73.5089286,47.8423466 73.5089286,47.7919856 L73.5089286,44.779278 C73.5089286,44.4368231 73.4419643,44.3674368 73.1015625,44.3528881 C73.0625,44.351769 73.0245536,44.3484116 72.9888393,44.3461733 C72.9598214,44.2443321 72.9598214,44.2443321 72.9799107,44.1145126 C73.6227679,44.1301805 74.2689732,44.1357762 74.9151786,44.1122744 C74.9508929,44.1962094 74.9441964,44.2644765 74.921875,44.3573646 C74.8214286,44.3573646 74.7220982,44.3528881 74.6227679,44.3584838 C74.4464286,44.3674368 74.3816964,44.4301083 74.3660714,44.603574 C74.3616071,44.6595307 74.3616071,44.7154874 74.3616071,44.771444 L74.3616071,47.7673646 C74.3616071,48.1019856 74.4464286,48.1848014 74.7857143,48.2094224 C74.9988839,48.2250903 75.2098214,48.2161372 75.4229911,48.2049458 C75.8292411,48.1836823 76.1049107,47.98 76.2421875,47.5983755 C76.2633929,47.5412996 76.2823661,47.4831047 76.2991071,47.4338628 C76.3359375,47.4025271 76.3705357,47.4047653 76.4040179,47.4058845 C76.4363839,47.4070036 76.4709821,47.3991697 76.5011161,47.4193141 C76.5178571,47.5547292 76.4006696,48.1422744 76.28125,48.5071119 L76.28125,48.5071119 Z M56.5078125,44.3461733 C56.4799107,44.2644765 56.484375,44.2040433 56.4977679,44.1436101 C56.5569196,44.1268231 58.3214286,44.11787 58.4252232,44.134657 C58.4453125,44.1962094 58.4419643,44.2611191 58.4285714,44.3305054 C58.3549107,44.3719134 58.2745536,44.3506498 58.1986607,44.3573646 C57.9933036,44.3763899 57.9095982,44.4569675 57.8928571,44.661769 C57.8883929,44.7177256 57.8895089,44.7736823 57.8895089,44.829639 L57.8895089,47.8076534 C57.8895089,47.8748014 57.8895089,47.9430686 57.8973214,48.0090975 C57.9162946,48.1691336 57.9955357,48.2485921 58.1551339,48.2676173 C58.2377232,48.2776895 58.3225446,48.2765704 58.4073661,48.2810469 C58.4587054,48.3493141 58.4352679,48.4198195 58.4319196,48.4869675 C58.3761161,48.5026354 56.5669643,48.5071119 56.5066964,48.4936823 C56.4854911,48.4712996 56.4877232,48.4422022 56.4877232,48.415343 C56.4866071,48.3761733 56.4832589,48.3370036 56.5066964,48.2944765 C56.5747768,48.2575451 56.6551339,48.2776895 56.7321429,48.2709747 C56.9319196,48.2519495 57.0234375,48.1612996 57.0345982,47.9609747 C57.0368304,47.9218051 57.0357143,47.8826354 57.0357143,47.8434657 L57.0357143,44.7815162 C57.0357143,44.7479422 57.0368304,44.7143682 57.0357143,44.6807942 C57.0267857,44.469278 56.9375,44.3752708 56.7287946,44.3584838 C56.65625,44.3528881 56.5837054,44.3495307 56.5078125,44.3461733 L56.5078125,44.3461733 Z M33.1004464,34.0546209 C33.0959821,34.3668592 32.8325893,34.6298556 32.5334821,34.6220217 C32.2444196,34.6141877 31.9821429,34.3411191 31.9832554,34.0490253 C31.984375,33.7614079 32.2600446,33.4916968 32.5491071,33.493935 C32.8515625,33.4961733 33.1037946,33.753574 33.1004464,34.0546209 Z" id="形状" fill="#000000"></path>
            <path d="M76.515625,44.6405054 C76.5758929,44.7602527 76.6640625,44.8486643 76.7410714,44.9482671 C76.6450893,44.9863177 76.5837054,44.9549819 76.5357143,44.8811191 C76.5,44.8240433 76.4620536,44.7680866 76.4252232,44.71213 C76.40625,44.6819134 76.3828125,44.6595307 76.3303571,44.6763177 C76.3125,44.771444 76.2901786,44.8710469 76.3850446,44.9594585 L76.1529018,44.9594585 C76.2198661,44.7300361 76.1986607,44.5062094 76.1674107,44.2644765 C76.2421875,44.2644765 76.3392857,44.2622383 76.4363839,44.2655957 C76.5245536,44.2678339 76.6082589,44.2902166 76.6428571,44.3808664 C76.6796875,44.4771119 76.640625,44.5554513 76.5580357,44.6136462 C76.5435268,44.6225993 76.5301339,44.6315523 76.515625,44.6405054 L76.515625,44.6405054 Z M76.3247768,44.3249097 C76.3158482,44.4245126 76.3125,44.5118051 76.3270089,44.5979783 C76.4709821,44.6147653 76.515625,44.5823105 76.5200893,44.4659206 C76.5234375,44.351769 76.4810268,44.3181949 76.3247768,44.3249097 L76.3247768,44.3249097 Z" id="形状" fill="#000000"></path>
        </g>
    </g>
</svg>