<?xml version="1.0" encoding="UTF-8"?>
<svg width="100px" height="60px" viewBox="0 0 100 60" version="1.1" xmlns="http://www.w3.org/2000/svg" xmlns:xlink="http://www.w3.org/1999/xlink">
    <title>JCB</title>
    <g id="页面-2" stroke="none" stroke-width="1" fill="none" fill-rule="evenodd">
        <g id="JCB" fill-rule="nonzero">
            <path d="M91.9642857,60 L8.03571429,60 C3.59821429,60 0,56.5083032 0,52.2021661 L0,7.79783394 C0,3.49169675 3.59821429,0 8.03571429,0 L91.9642857,0 C96.4017857,0 100,3.49169675 100,7.79783394 L100,52.2021661 C100,56.5083032 96.4017857,60 91.9642857,60 Z" id="路径" fill="#F7F9FB"></path>
            <path d="M41.9642857,13.6606498 L41.9642857,38.1696751 C41.9642857,43.0938628 41.5736607,46.3393502 33.8169643,46.3393502 L28.3850446,46.3393502 L28.3850446,34.7607942 C30.8292411,35.445704 33.9252232,35.445704 33.9252232,35.445704 C39.0993304,35.445704 40.6060268,33.4323827 40.6060268,30.9434296 L40.6060268,24.5531769 L35.9609375,24.5531769 L35.9609375,30.9434296 C35.9609375,32.4990253 34.921875,33.6618051 33.0491071,33.6618051 C31.4598214,33.6618051 29.8917411,33.1850542 28.3850446,32.4374729 L28.3850446,21.8303249 C28.3850446,15.0036101 30.9709821,13.6606498 36.5323661,13.6606498 L41.9642857,13.6606498 Z" id="路径" fill="#086CB4"></path>
            <path d="M56.9006696,13.6606498 L56.9006696,38.1696751 C56.9006696,44.2129964 55.4129464,46.3393502 48.7533482,46.3393502 L43.3214286,46.3393502 L43.3191964,33.4424549 C44.6495536,34.7563177 47.0993304,35.6068592 51.2633929,35.421083 C51.2633929,35.421083 53.3415179,35.3393863 55.5424107,34.7943682 L55.5424107,32.5057401 C54.4732143,33.0518773 53.1149554,33.57787 51.4274554,33.6987365 C48.4654018,33.921444 46.6953125,32.5057401 46.6953125,29.9977617 C46.6953125,27.4909025 48.4654018,26.0740794 51.4274554,26.296787 C53.1138393,26.4187726 54.4520089,26.9235018 55.5424107,27.469639 L55.5424107,25.2045126 C53.3404018,24.6583755 51.2633929,24.5777978 51.2633929,24.5777978 C47.0993304,24.3920217 44.6495536,25.2425632 43.3191964,26.556426 L43.3214286,21.8292058 C43.3214286,15.002491 45.5904018,13.6595307 51.46875,13.6595307 L56.9006696,13.6595307 L56.9006696,13.6606498 Z" id="路径" fill="#E90037"></path>
            <path d="M64.5011161,28.9759928 C65.1395089,28.8786282 65.6082589,28.3011552 65.5915179,27.6307942 C65.6082589,26.9559567 65.1428571,26.3728881 64.5011161,26.2643321 C64.4397321,26.2643321 64.2957589,26.2419495 64.1930804,26.2419495 L61.3325893,26.2419495 L61.3325893,28.9972563 L64.2756696,28.9972563 L64.3627232,28.9950181 C64.4185268,28.9916606 64.4698661,28.986065 64.5011161,28.9759928 L64.5011161,28.9759928 Z M61.3303571,33.6741155 L64.4787946,33.6741155 L64.6651786,33.6618051 L64.8493304,33.6315884 C65.4196429,33.5140794 65.8839286,33.0317329 65.9520089,32.3535379 L65.9609375,32.1800722 L65.9520089,32.0099639 C65.8839286,31.3440794 65.4196429,30.8438267 64.8493304,30.7251986 C64.7276786,30.6994585 64.6037946,30.6860289 64.4787946,30.6826715 L61.3303571,30.6826715 L61.3303571,33.6741155 L61.3303571,33.6741155 Z" id="形状" fill="#69A547"></path>
            <path d="M66.5178571,13.6606498 C58.984375,13.6606498 58.3705357,16.5703971 58.3705357,21.8303249 L58.3705357,24.5531769 L66.375,24.5531769 L66.5189732,24.5565343 C66.6662946,24.5632491 66.8169643,24.5755596 66.9095982,24.5755596 C68.6584821,24.6606137 69.9542411,25.5995668 69.9542411,27.2234296 C69.9542411,28.4141877 69.1651786,29.4516245 67.7243304,29.7616245 L67.4631696,29.8086282 L67.4631696,29.8724188 L67.7131696,29.8970397 C69.2801339,30.0906498 70.4720982,31.0083394 70.5825893,32.3938267 L70.5904018,32.605343 L70.5825893,32.8179783 C70.4732143,34.3556679 69.1506696,35.3561733 67.3616071,35.4401083 L67.1149554,35.445704 L58.3705357,35.445704 L58.3705357,46.3393502 L63.8024554,46.3393502 C71.0379464,46.3393502 71.9497768,43.3176895 71.9497768,38.1696751 L71.9497768,13.6606498 L66.5178571,13.6606498 Z" id="路径" fill="#69A547"></path>
        </g>
    </g>
</svg>