<?xml version="1.0" encoding="utf-8"?>
<!-- Generator: Adobe Illustrator 26.0.2, SVG Export Plug-In . SVG Version: 6.00 Build 0)  -->
<svg version="1.1" id="Layer_1" xmlns="http://www.w3.org/2000/svg" xmlns:xlink="http://www.w3.org/1999/xlink" x="0px" y="0px"
	 viewBox="0 0 80 80" style="enable-background:new 0 0 80 80;" xml:space="preserve">
<style type="text/css">
	.st0{fill:none;}
	.st1{fill-rule:evenodd;clip-rule:evenodd;fill:#E2001A;}
	
		.st2{clip-path:url(#SVGID_00000163795602778465320860000016480331775044607664_);fill:none;stroke:#E2001A;stroke-width:4;stroke-linejoin:bevel;stroke-miterlimit:10;}
</style>
<g id="Brand-Identity">
	<g id="Group-4">
		<rect id="Rectangle" class="st0" width="80" height="80"/>
		<g id="Combined-Shape">
			<path id="path-1_00000162332042495538073060000006286231844542170793_" class="st1" d="M40,24c4.4,0,8,3.6,8,8
				c0,2.8-1.4,5.2-3.6,6.7c2.2,0.7,4.2,1.8,5.8,3.4c1.2,1.2,2.1,2.5,2.7,3.9c-0.7,0-1.4,0.1-2,0.4c-0.5-1-1.2-2-2.1-2.9
				c-2.3-2.3-5.6-3.6-9.1-3.5C33.3,40.1,28,45.1,28,51.2l0,0V53c0,0.6,0.4,1,1,1l0,0l18.3,0c0.3,0.7,0.7,1.4,1.2,2L29,56
				c-1.7,0-3-1.3-3-3l0,0v-1.8c0-5.8,4-10.8,9.6-12.5C33.4,37.2,32,34.8,32,32C32,27.6,35.6,24,40,24z M40,26c-3.3,0-6,2.7-6,6
				s2.7,6,6,6s6-2.7,6-6S43.3,26,40,26z"/>
		</g>
		<g id="Group-3" transform="translate(47.000000, 46.000000)">
			<path id="Combined-Shape_00000099657092997429884580000002822180877580784804_" class="st1" d="M0,0"/>
			<path id="Fill-5" class="st1" d="M7,6.9H4.3c-0.4,0-0.7-0.4-0.7-1s0.3-1,0.7-1H7c0.4,0,0.7,0.4,0.7,1S7.4,6.9,7,6.9"/>
		</g>
	</g>
</g>
<g>
	<defs>
		<path id="SVGID_1_" d="M52.7,47.8c-2.3,0-4.1,1.8-4.1,4.1s1.8,4.1,4.1,4.1s4.1-1.8,4.1-4.1S54.9,47.8,52.7,47.8z M52.6,45.8
			c3.3,0,6,2.7,6,6c0,3.3-2.7,6-6,6c-3.3,0-6-2.7-6-6C46.6,48.5,49.3,45.8,52.6,45.8z"/>
	</defs>
	<clipPath id="SVGID_00000021105500890969037130000014867084043596712581_">
		<use xlink:href="#SVGID_1_"  style="overflow:visible;"/>
	</clipPath>
	
		<path style="clip-path:url(#SVGID_00000021105500890969037130000014867084043596712581_);fill:none;stroke:#E2001A;stroke-width:4;stroke-linejoin:bevel;stroke-miterlimit:10;" d="
		M52.6,47.8c-2.2,0-4,1.8-4,4c0,2.2,1.8,4,4,4s4-1.8,4-4C56.6,49.6,54.8,47.8,52.6,47.8z M52.6,45.8c3.3,0,6,2.7,6,6
		c0,3.3-2.7,6-6,6c-3.3,0-6-2.7-6-6C46.6,48.5,49.3,45.8,52.6,45.8z"/>
</g>
</svg>
